<svg width="59" height="27" viewBox="0 0 59 27" fill="none" xmlns="http://www.w3.org/2000/svg">
<mask id="path-1-outside-1_1_4" maskUnits="userSpaceOnUse" x="-0.744003" y="-0.195999" width="60" height="27" fill="black">
<rect fill="white" x="-0.744003" y="-0.195999" width="60" height="27"/>
<path d="M3.64 11.212L1.264 11.08C1.12 11.08 0.999997 10.948 0.999997 10.804V10.78L1.492 1.42C1.492 1.264 1.624 1.144 1.792 1.144L3.976 1.264H4.024L7.336 1.444C7.48 1.444 7.612 1.576 7.612 1.732V1.756L7.492 4.024C7.492 4.168 7.36 4.3 7.204 4.3H7.18L4.3 4.144L4.252 5.068L6.352 5.284C6.508 5.308 6.616 5.428 6.616 5.572V5.608L6.352 7.624C6.34 7.768 6.208 7.888 6.052 7.888H6.028L4.108 7.684L3.94 10.936C3.928 11.092 3.796 11.212 3.64 11.212ZM11.6632 11.236H9.01122C8.85522 11.236 8.72322 11.104 8.72322 10.948V1.576C8.72322 1.42 8.85522 1.288 9.01122 1.288H11.6632C11.8192 1.288 11.9512 1.42 11.9512 1.576V10.948C11.9512 11.104 11.8192 11.236 11.6632 11.236ZM22.2409 11.296L19.9729 11.164C19.8409 11.164 19.7329 11.044 19.6609 10.936C19.4089 10.54 17.0089 6.076 16.4929 5.428C16.4449 5.356 16.3969 5.332 16.3609 5.332C16.3009 5.332 16.2769 5.38 16.2769 5.476V5.524L16.8889 10.636V10.648C16.8889 10.78 16.7689 11.02 16.4689 11.056L14.2249 11.344H14.1889C14.0089 11.344 13.8649 11.152 13.8529 10.996L13.3369 1.792V1.768C13.3369 1.636 13.4209 1.348 13.6609 1.336L16.0009 1.228H16.0249C16.2049 1.228 16.4449 1.324 16.5049 1.384C17.2249 2.104 18.7009 4.552 19.8289 6.46C19.8649 6.532 19.9009 6.556 19.9369 6.556C19.9849 6.556 20.0089 6.484 20.0089 6.388L20.1529 1.48C20.1529 1.336 20.2849 1.204 20.4289 1.204H20.4529L22.7569 1.348C22.9489 1.36 23.0329 1.492 23.0329 1.636C23.0329 1.948 22.7089 8.788 22.5409 11.02C22.5409 11.176 22.4089 11.296 22.2409 11.296ZM24.5817 10.588L24.1137 1.792C24.1137 1.636 24.2337 1.492 24.3897 1.492L26.3097 1.384C26.9337 1.18 27.6417 1.072 28.3497 1.072C30.3777 1.072 32.5017 1.948 33.1857 4.048C33.4497 4.852 33.5697 5.596 33.5697 6.268C33.5697 9.664 30.5937 11.524 27.1857 11.524C26.6337 11.524 26.0697 11.476 25.5057 11.38C25.4097 11.356 25.3137 11.344 25.2297 11.332C24.8337 11.236 24.6057 11.044 24.5817 10.588ZM27.2337 3.736L27.4977 8.704C27.5937 8.716 27.6897 8.716 27.7857 8.716C29.1777 8.716 30.3297 7.72 30.3297 6.196C30.3297 5.992 30.3177 3.616 28.0977 3.616C27.8097 3.616 27.5097 3.664 27.2337 3.736ZM40.9569 11.08L37.8369 11.248C37.8249 11.248 37.8009 11.26 37.7889 11.26L35.4489 11.38H35.4249C35.2809 11.38 35.1609 11.248 35.1489 11.104L34.6569 1.744V1.72C34.6569 1.576 34.7889 1.444 34.9329 1.444L37.1169 1.324H37.1649L40.3569 1.156H40.3809C40.5249 1.156 40.6569 1.288 40.6689 1.432L40.7649 3.52V3.544C40.7649 3.688 40.6329 3.82 40.4889 3.832L37.6929 3.976L37.7529 5.008H39.9009C40.0449 5.008 40.1889 5.128 40.1889 5.284V5.308L40.1649 7.144C40.1529 7.312 40.0329 7.444 39.8649 7.444H37.8729L37.9329 8.56L40.8489 8.404H40.8729C41.0289 8.404 41.1609 8.536 41.1609 8.68L41.2449 10.768C41.2449 10.924 41.1249 11.068 40.9569 11.08ZM50.8022 10.564L49.2062 11.32C49.1102 11.368 49.0142 11.392 48.9182 11.392C48.7982 11.392 48.6902 11.344 48.6062 11.212C48.1022 10.48 47.3462 9.292 46.7702 8.344C46.2662 8.344 45.7742 8.284 45.3182 8.152L45.1742 10.984C45.1622 11.116 45.0662 11.224 44.9342 11.224H44.9102L42.3902 11.092C42.2702 11.092 42.1622 10.984 42.1622 10.852V10.828L42.6422 1.336C42.6542 1.216 42.7622 1.108 42.8822 1.108H42.9062L45.1262 1.216C45.5942 1.072 46.0742 1 46.5422 1C48.7502 1 50.7542 2.548 50.7542 4.744C50.7542 5.332 50.6102 6.4 49.8542 7.192C50.5382 8.452 51.0662 10.132 51.0662 10.24C51.0662 10.36 51.0062 10.48 50.8022 10.564ZM45.5582 3.58L45.4382 5.908C45.6902 6.016 46.0262 6.1 46.3502 6.1C47.3222 6.1 47.6702 5.392 47.6702 4.84C47.6702 4.06 46.9982 3.508 46.1102 3.508C45.9422 3.508 45.7502 3.532 45.5582 3.58ZM51.7779 11.152L51.3819 9.352C51.3699 9.328 51.3699 9.292 51.3699 9.268C51.3699 9.088 51.5499 9.028 51.6219 9.028H51.6699C52.4859 9.028 53.3739 8.596 53.3739 7.84C53.3739 7.444 53.1579 7.084 52.5099 6.076C52.0179 5.332 51.8019 4.66 51.8019 4.072C51.8019 2.176 53.9619 1.108 55.9779 1.108C56.4459 1.108 56.6859 1.156 56.7579 1.408L57.1779 3.184C57.1899 3.22 57.1899 3.256 57.1899 3.28C57.1899 3.472 57.0099 3.544 56.9379 3.544H56.8659C56.0859 3.544 55.3539 3.832 55.3539 4.516C55.3539 4.924 55.6539 5.488 56.2059 6.268C56.7099 7.012 56.9259 7.684 56.9259 8.284C56.9259 10.276 54.5379 11.452 52.4619 11.452C52.3419 11.452 52.2339 11.452 52.1139 11.44C51.9579 11.44 51.8139 11.308 51.7779 11.152ZM9.724 24.468L8.008 25.26C7.888 25.308 7.792 25.356 7.696 25.356C7.6 25.356 7.516 25.308 7.432 25.2C6.94 24.516 5.104 21.492 4.624 20.88C4.612 20.868 4.6 20.844 4.6 20.832L4.108 21.18V24.984C4.108 25.116 3.988 25.236 3.856 25.236H1.336C1.192 25.236 1.084 25.116 1.084 24.984V15.564C1.084 15.42 1.192 15.312 1.336 15.312H3.856C3.988 15.312 4.108 15.42 4.108 15.564V17.928C4.252 17.796 7.216 15.192 7.756 15.192C7.852 15.192 7.948 15.24 8.056 15.372L9.352 16.98C9.424 17.064 9.46 17.148 9.46 17.232C9.46 17.352 9.388 17.46 9.256 17.544C8.752 17.88 6.64 19.38 5.248 20.376L6.772 19.824C6.892 19.776 7 19.716 7.12 19.716C7.864 19.716 9.94 23.616 9.94 24.156C9.94 24.276 9.892 24.396 9.724 24.468ZM16.8917 25.08L13.7717 25.248C13.7597 25.248 13.7357 25.26 13.7237 25.26L11.3837 25.38H11.3597C11.2157 25.38 11.0957 25.248 11.0837 25.104L10.5917 15.744V15.72C10.5917 15.576 10.7237 15.444 10.8677 15.444L13.0517 15.324H13.0997L16.2917 15.156H16.3157C16.4597 15.156 16.5917 15.288 16.6037 15.432L16.6997 17.52V17.544C16.6997 17.688 16.5677 17.82 16.4237 17.832L13.6277 17.976L13.6877 19.008H15.8357C15.9797 19.008 16.1237 19.128 16.1237 19.284V19.308L16.0997 21.144C16.0877 21.312 15.9677 21.444 15.7997 21.444H13.8077L13.8677 22.56L16.7837 22.404H16.8077C16.9637 22.404 17.0957 22.536 17.0957 22.68L17.1797 24.768C17.1797 24.924 17.0597 25.068 16.8917 25.08ZM24.433 25.08L21.313 25.248C21.301 25.248 21.277 25.26 21.265 25.26L18.925 25.38H18.901C18.757 25.38 18.637 25.248 18.625 25.104L18.133 15.744V15.72C18.133 15.576 18.265 15.444 18.409 15.444L20.593 15.324H20.641L23.833 15.156H23.857C24.001 15.156 24.133 15.288 24.145 15.432L24.241 17.52V17.544C24.241 17.688 24.109 17.82 23.965 17.832L21.169 17.976L21.229 19.008H23.377C23.521 19.008 23.665 19.128 23.665 19.284V19.308L23.641 21.144C23.629 21.312 23.509 21.444 23.341 21.444H21.349L21.409 22.56L24.325 22.404H24.349C24.505 22.404 24.637 22.536 24.637 22.68L24.721 24.768C24.721 24.924 24.601 25.068 24.433 25.08ZM28.3982 25.332H28.3742L25.8542 25.2C25.7102 25.188 25.6142 25.08 25.6142 24.936L26.1062 15.444C26.1062 15.324 26.2142 15.216 26.3462 15.216H26.3702L28.5662 15.324C29.0462 15.168 29.5262 15.084 29.9942 15.084C32.2142 15.084 34.2182 16.728 34.2182 19.044C34.2182 21.264 32.7062 22.812 30.2102 22.812C29.7062 22.812 29.2142 22.74 28.7582 22.608L28.6382 25.092C28.6262 25.224 28.5182 25.332 28.3982 25.332ZM29.0102 17.7L28.8782 20.22C29.1422 20.34 29.4782 20.424 29.8022 20.424C31.1222 20.424 31.1222 19.14 31.1222 19.056C31.1222 18.216 30.4502 17.628 29.5622 17.628C29.3942 17.628 29.2022 17.652 29.0102 17.7ZM41.3553 25.08L38.2353 25.248C38.2233 25.248 38.1993 25.26 38.1873 25.26L35.8473 25.38H35.8233C35.6793 25.38 35.5593 25.248 35.5473 25.104L35.0553 15.744V15.72C35.0553 15.576 35.1873 15.444 35.3313 15.444L37.5153 15.324H37.5633L40.7553 15.156H40.7793C40.9233 15.156 41.0553 15.288 41.0673 15.432L41.1633 17.52V17.544C41.1633 17.688 41.0313 17.82 40.8873 17.832L38.0913 17.976L38.1513 19.008H40.2993C40.4433 19.008 40.5873 19.128 40.5873 19.284V19.308L40.5633 21.144C40.5513 21.312 40.4313 21.444 40.2633 21.444H38.2713L38.3313 22.56L41.2473 22.404H41.2713C41.4273 22.404 41.5593 22.536 41.5593 22.68L41.6433 24.768C41.6433 24.924 41.5233 25.068 41.3553 25.08ZM51.2006 24.564L49.6046 25.32C49.5086 25.368 49.4126 25.392 49.3166 25.392C49.1966 25.392 49.0886 25.344 49.0046 25.212C48.5006 24.48 47.7446 23.292 47.1686 22.344C46.6646 22.344 46.1726 22.284 45.7166 22.152L45.5726 24.984C45.5606 25.116 45.4646 25.224 45.3326 25.224H45.3086L42.7886 25.092C42.6686 25.092 42.5606 24.984 42.5606 24.852V24.828L43.0406 15.336C43.0526 15.216 43.1606 15.108 43.2806 15.108H43.3046L45.5246 15.216C45.9926 15.072 46.4726 15 46.9406 15C49.1486 15 51.1526 16.548 51.1526 18.744C51.1526 19.332 51.0086 20.4 50.2526 21.192C50.9366 22.452 51.4646 24.132 51.4646 24.24C51.4646 24.36 51.4046 24.48 51.2006 24.564ZM45.9566 17.58L45.8366 19.908C46.0886 20.016 46.4246 20.1 46.7486 20.1C47.7206 20.1 48.0686 19.392 48.0686 18.84C48.0686 18.06 47.3966 17.508 46.5086 17.508C46.3406 17.508 46.1486 17.532 45.9566 17.58ZM52.1763 25.152L51.7803 23.352C51.7683 23.328 51.7683 23.292 51.7683 23.268C51.7683 23.088 51.9483 23.028 52.0203 23.028H52.0683C52.8843 23.028 53.7723 22.596 53.7723 21.84C53.7723 21.444 53.5563 21.084 52.9083 20.076C52.4163 19.332 52.2003 18.66 52.2003 18.072C52.2003 16.176 54.3603 15.108 56.3763 15.108C56.8443 15.108 57.0843 15.156 57.1563 15.408L57.5763 17.184C57.5883 17.22 57.5883 17.256 57.5883 17.28C57.5883 17.472 57.4083 17.544 57.3363 17.544H57.2643C56.4843 17.544 55.7523 17.832 55.7523 18.516C55.7523 18.924 56.0523 19.488 56.6043 20.268C57.1083 21.012 57.3243 21.684 57.3243 22.284C57.3243 24.276 54.9363 25.452 52.8603 25.452C52.7403 25.452 52.6323 25.452 52.5123 25.44C52.3563 25.44 52.2123 25.308 52.1763 25.152Z"/>
</mask>
<path d="M3.64 11.212L1.264 11.08C1.12 11.08 0.999997 10.948 0.999997 10.804V10.78L1.492 1.42C1.492 1.264 1.624 1.144 1.792 1.144L3.976 1.264H4.024L7.336 1.444C7.48 1.444 7.612 1.576 7.612 1.732V1.756L7.492 4.024C7.492 4.168 7.36 4.3 7.204 4.3H7.18L4.3 4.144L4.252 5.068L6.352 5.284C6.508 5.308 6.616 5.428 6.616 5.572V5.608L6.352 7.624C6.34 7.768 6.208 7.888 6.052 7.888H6.028L4.108 7.684L3.94 10.936C3.928 11.092 3.796 11.212 3.64 11.212ZM11.6632 11.236H9.01122C8.85522 11.236 8.72322 11.104 8.72322 10.948V1.576C8.72322 1.42 8.85522 1.288 9.01122 1.288H11.6632C11.8192 1.288 11.9512 1.42 11.9512 1.576V10.948C11.9512 11.104 11.8192 11.236 11.6632 11.236ZM22.2409 11.296L19.9729 11.164C19.8409 11.164 19.7329 11.044 19.6609 10.936C19.4089 10.54 17.0089 6.076 16.4929 5.428C16.4449 5.356 16.3969 5.332 16.3609 5.332C16.3009 5.332 16.2769 5.38 16.2769 5.476V5.524L16.8889 10.636V10.648C16.8889 10.78 16.7689 11.02 16.4689 11.056L14.2249 11.344H14.1889C14.0089 11.344 13.8649 11.152 13.8529 10.996L13.3369 1.792V1.768C13.3369 1.636 13.4209 1.348 13.6609 1.336L16.0009 1.228H16.0249C16.2049 1.228 16.4449 1.324 16.5049 1.384C17.2249 2.104 18.7009 4.552 19.8289 6.46C19.8649 6.532 19.9009 6.556 19.9369 6.556C19.9849 6.556 20.0089 6.484 20.0089 6.388L20.1529 1.48C20.1529 1.336 20.2849 1.204 20.4289 1.204H20.4529L22.7569 1.348C22.9489 1.36 23.0329 1.492 23.0329 1.636C23.0329 1.948 22.7089 8.788 22.5409 11.02C22.5409 11.176 22.4089 11.296 22.2409 11.296ZM24.5817 10.588L24.1137 1.792C24.1137 1.636 24.2337 1.492 24.3897 1.492L26.3097 1.384C26.9337 1.18 27.6417 1.072 28.3497 1.072C30.3777 1.072 32.5017 1.948 33.1857 4.048C33.4497 4.852 33.5697 5.596 33.5697 6.268C33.5697 9.664 30.5937 11.524 27.1857 11.524C26.6337 11.524 26.0697 11.476 25.5057 11.38C25.4097 11.356 25.3137 11.344 25.2297 11.332C24.8337 11.236 24.6057 11.044 24.5817 10.588ZM27.2337 3.736L27.4977 8.704C27.5937 8.716 27.6897 8.716 27.7857 8.716C29.1777 8.716 30.3297 7.72 30.3297 6.196C30.3297 5.992 30.3177 3.616 28.0977 3.616C27.8097 3.616 27.5097 3.664 27.2337 3.736ZM40.9569 11.08L37.8369 11.248C37.8249 11.248 37.8009 11.26 37.7889 11.26L35.4489 11.38H35.4249C35.2809 11.38 35.1609 11.248 35.1489 11.104L34.6569 1.744V1.72C34.6569 1.576 34.7889 1.444 34.9329 1.444L37.1169 1.324H37.1649L40.3569 1.156H40.3809C40.5249 1.156 40.6569 1.288 40.6689 1.432L40.7649 3.52V3.544C40.7649 3.688 40.6329 3.82 40.4889 3.832L37.6929 3.976L37.7529 5.008H39.9009C40.0449 5.008 40.1889 5.128 40.1889 5.284V5.308L40.1649 7.144C40.1529 7.312 40.0329 7.444 39.8649 7.444H37.8729L37.9329 8.56L40.8489 8.404H40.8729C41.0289 8.404 41.1609 8.536 41.1609 8.68L41.2449 10.768C41.2449 10.924 41.1249 11.068 40.9569 11.08ZM50.8022 10.564L49.2062 11.32C49.1102 11.368 49.0142 11.392 48.9182 11.392C48.7982 11.392 48.6902 11.344 48.6062 11.212C48.1022 10.48 47.3462 9.292 46.7702 8.344C46.2662 8.344 45.7742 8.284 45.3182 8.152L45.1742 10.984C45.1622 11.116 45.0662 11.224 44.9342 11.224H44.9102L42.3902 11.092C42.2702 11.092 42.1622 10.984 42.1622 10.852V10.828L42.6422 1.336C42.6542 1.216 42.7622 1.108 42.8822 1.108H42.9062L45.1262 1.216C45.5942 1.072 46.0742 1 46.5422 1C48.7502 1 50.7542 2.548 50.7542 4.744C50.7542 5.332 50.6102 6.4 49.8542 7.192C50.5382 8.452 51.0662 10.132 51.0662 10.24C51.0662 10.36 51.0062 10.48 50.8022 10.564ZM45.5582 3.58L45.4382 5.908C45.6902 6.016 46.0262 6.1 46.3502 6.1C47.3222 6.1 47.6702 5.392 47.6702 4.84C47.6702 4.06 46.9982 3.508 46.1102 3.508C45.9422 3.508 45.7502 3.532 45.5582 3.58ZM51.7779 11.152L51.3819 9.352C51.3699 9.328 51.3699 9.292 51.3699 9.268C51.3699 9.088 51.5499 9.028 51.6219 9.028H51.6699C52.4859 9.028 53.3739 8.596 53.3739 7.84C53.3739 7.444 53.1579 7.084 52.5099 6.076C52.0179 5.332 51.8019 4.66 51.8019 4.072C51.8019 2.176 53.9619 1.108 55.9779 1.108C56.4459 1.108 56.6859 1.156 56.7579 1.408L57.1779 3.184C57.1899 3.22 57.1899 3.256 57.1899 3.28C57.1899 3.472 57.0099 3.544 56.9379 3.544H56.8659C56.0859 3.544 55.3539 3.832 55.3539 4.516C55.3539 4.924 55.6539 5.488 56.2059 6.268C56.7099 7.012 56.9259 7.684 56.9259 8.284C56.9259 10.276 54.5379 11.452 52.4619 11.452C52.3419 11.452 52.2339 11.452 52.1139 11.44C51.9579 11.44 51.8139 11.308 51.7779 11.152ZM9.724 24.468L8.008 25.26C7.888 25.308 7.792 25.356 7.696 25.356C7.6 25.356 7.516 25.308 7.432 25.2C6.94 24.516 5.104 21.492 4.624 20.88C4.612 20.868 4.6 20.844 4.6 20.832L4.108 21.18V24.984C4.108 25.116 3.988 25.236 3.856 25.236H1.336C1.192 25.236 1.084 25.116 1.084 24.984V15.564C1.084 15.42 1.192 15.312 1.336 15.312H3.856C3.988 15.312 4.108 15.42 4.108 15.564V17.928C4.252 17.796 7.216 15.192 7.756 15.192C7.852 15.192 7.948 15.24 8.056 15.372L9.352 16.98C9.424 17.064 9.46 17.148 9.46 17.232C9.46 17.352 9.388 17.46 9.256 17.544C8.752 17.88 6.64 19.38 5.248 20.376L6.772 19.824C6.892 19.776 7 19.716 7.12 19.716C7.864 19.716 9.94 23.616 9.94 24.156C9.94 24.276 9.892 24.396 9.724 24.468ZM16.8917 25.08L13.7717 25.248C13.7597 25.248 13.7357 25.26 13.7237 25.26L11.3837 25.38H11.3597C11.2157 25.38 11.0957 25.248 11.0837 25.104L10.5917 15.744V15.72C10.5917 15.576 10.7237 15.444 10.8677 15.444L13.0517 15.324H13.0997L16.2917 15.156H16.3157C16.4597 15.156 16.5917 15.288 16.6037 15.432L16.6997 17.52V17.544C16.6997 17.688 16.5677 17.82 16.4237 17.832L13.6277 17.976L13.6877 19.008H15.8357C15.9797 19.008 16.1237 19.128 16.1237 19.284V19.308L16.0997 21.144C16.0877 21.312 15.9677 21.444 15.7997 21.444H13.8077L13.8677 22.56L16.7837 22.404H16.8077C16.9637 22.404 17.0957 22.536 17.0957 22.68L17.1797 24.768C17.1797 24.924 17.0597 25.068 16.8917 25.08ZM24.433 25.08L21.313 25.248C21.301 25.248 21.277 25.26 21.265 25.26L18.925 25.38H18.901C18.757 25.38 18.637 25.248 18.625 25.104L18.133 15.744V15.72C18.133 15.576 18.265 15.444 18.409 15.444L20.593 15.324H20.641L23.833 15.156H23.857C24.001 15.156 24.133 15.288 24.145 15.432L24.241 17.52V17.544C24.241 17.688 24.109 17.82 23.965 17.832L21.169 17.976L21.229 19.008H23.377C23.521 19.008 23.665 19.128 23.665 19.284V19.308L23.641 21.144C23.629 21.312 23.509 21.444 23.341 21.444H21.349L21.409 22.56L24.325 22.404H24.349C24.505 22.404 24.637 22.536 24.637 22.68L24.721 24.768C24.721 24.924 24.601 25.068 24.433 25.08ZM28.3982 25.332H28.3742L25.8542 25.2C25.7102 25.188 25.6142 25.08 25.6142 24.936L26.1062 15.444C26.1062 15.324 26.2142 15.216 26.3462 15.216H26.3702L28.5662 15.324C29.0462 15.168 29.5262 15.084 29.9942 15.084C32.2142 15.084 34.2182 16.728 34.2182 19.044C34.2182 21.264 32.7062 22.812 30.2102 22.812C29.7062 22.812 29.2142 22.74 28.7582 22.608L28.6382 25.092C28.6262 25.224 28.5182 25.332 28.3982 25.332ZM29.0102 17.7L28.8782 20.22C29.1422 20.34 29.4782 20.424 29.8022 20.424C31.1222 20.424 31.1222 19.14 31.1222 19.056C31.1222 18.216 30.4502 17.628 29.5622 17.628C29.3942 17.628 29.2022 17.652 29.0102 17.7ZM41.3553 25.08L38.2353 25.248C38.2233 25.248 38.1993 25.26 38.1873 25.26L35.8473 25.38H35.8233C35.6793 25.38 35.5593 25.248 35.5473 25.104L35.0553 15.744V15.72C35.0553 15.576 35.1873 15.444 35.3313 15.444L37.5153 15.324H37.5633L40.7553 15.156H40.7793C40.9233 15.156 41.0553 15.288 41.0673 15.432L41.1633 17.52V17.544C41.1633 17.688 41.0313 17.82 40.8873 17.832L38.0913 17.976L38.1513 19.008H40.2993C40.4433 19.008 40.5873 19.128 40.5873 19.284V19.308L40.5633 21.144C40.5513 21.312 40.4313 21.444 40.2633 21.444H38.2713L38.3313 22.56L41.2473 22.404H41.2713C41.4273 22.404 41.5593 22.536 41.5593 22.68L41.6433 24.768C41.6433 24.924 41.5233 25.068 41.3553 25.08ZM51.2006 24.564L49.6046 25.32C49.5086 25.368 49.4126 25.392 49.3166 25.392C49.1966 25.392 49.0886 25.344 49.0046 25.212C48.5006 24.48 47.7446 23.292 47.1686 22.344C46.6646 22.344 46.1726 22.284 45.7166 22.152L45.5726 24.984C45.5606 25.116 45.4646 25.224 45.3326 25.224H45.3086L42.7886 25.092C42.6686 25.092 42.5606 24.984 42.5606 24.852V24.828L43.0406 15.336C43.0526 15.216 43.1606 15.108 43.2806 15.108H43.3046L45.5246 15.216C45.9926 15.072 46.4726 15 46.9406 15C49.1486 15 51.1526 16.548 51.1526 18.744C51.1526 19.332 51.0086 20.4 50.2526 21.192C50.9366 22.452 51.4646 24.132 51.4646 24.24C51.4646 24.36 51.4046 24.48 51.2006 24.564ZM45.9566 17.58L45.8366 19.908C46.0886 20.016 46.4246 20.1 46.7486 20.1C47.7206 20.1 48.0686 19.392 48.0686 18.84C48.0686 18.06 47.3966 17.508 46.5086 17.508C46.3406 17.508 46.1486 17.532 45.9566 17.58ZM52.1763 25.152L51.7803 23.352C51.7683 23.328 51.7683 23.292 51.7683 23.268C51.7683 23.088 51.9483 23.028 52.0203 23.028H52.0683C52.8843 23.028 53.7723 22.596 53.7723 21.84C53.7723 21.444 53.5563 21.084 52.9083 20.076C52.4163 19.332 52.2003 18.66 52.2003 18.072C52.2003 16.176 54.3603 15.108 56.3763 15.108C56.8443 15.108 57.0843 15.156 57.1563 15.408L57.5763 17.184C57.5883 17.22 57.5883 17.256 57.5883 17.28C57.5883 17.472 57.4083 17.544 57.3363 17.544H57.2643C56.4843 17.544 55.7523 17.832 55.7523 18.516C55.7523 18.924 56.0523 19.488 56.6043 20.268C57.1083 21.012 57.3243 21.684 57.3243 22.284C57.3243 24.276 54.9363 25.452 52.8603 25.452C52.7403 25.452 52.6323 25.452 52.5123 25.44C52.3563 25.44 52.2123 25.308 52.1763 25.152Z" fill="white"/>
<path d="M3.64 11.212L3.58453 12.2105L3.61224 12.212H3.64V11.212ZM1.264 11.08L1.31947 10.0815L1.29175 10.08H1.264V11.08ZM0.999997 10.78L0.00137537 10.7275L-3.26335e-06 10.7537V10.78H0.999997ZM1.492 1.42L2.49062 1.47249L2.492 1.44626V1.42H1.492ZM1.792 1.144L1.84686 0.145506L1.81945 0.144H1.792V1.144ZM3.976 1.264L3.92113 2.26249L3.94854 2.264H3.976V1.264ZM4.024 1.264L4.07826 0.265474L4.05115 0.264001H4.024V1.264ZM7.336 1.444L7.28173 2.44253L7.30884 2.444H7.336V1.444ZM7.612 1.756L8.6106 1.80884L8.612 1.78244V1.756H7.612ZM7.492 4.024L6.49339 3.97116L6.492 3.99756V4.024H7.492ZM7.18 4.3L7.12591 5.29854L7.15293 5.3H7.18V4.3ZM4.3 4.144L4.35408 3.14546L3.35334 3.09126L3.30134 4.09212L4.3 4.144ZM4.252 5.068L3.25334 5.01612L3.20403 5.96549L4.14968 6.06275L4.252 5.068ZM6.352 5.284L6.50405 4.29563L6.47926 4.29182L6.45431 4.28925L6.352 5.284ZM6.616 5.608L7.60753 5.73784L7.616 5.6732V5.608H6.616ZM6.352 7.624L5.36046 7.49416L5.35741 7.5175L5.35545 7.54096L6.352 7.624ZM6.028 7.888L5.92234 8.8824L5.97502 8.888H6.028V7.888ZM4.108 7.684L4.21365 6.6896L3.1638 6.57805L3.10933 7.63241L4.108 7.684ZM3.94 10.936L4.93705 11.0127L4.93802 11.0002L4.93867 10.9876L3.94 10.936ZM3.64 11.212L3.69547 10.2135L1.31947 10.0815L1.264 11.08L1.20853 12.0785L3.58453 12.2105L3.64 11.212ZM1.264 11.08V10.08C1.50547 10.08 1.69275 10.1901 1.8062 10.3106C1.91797 10.4294 2 10.6005 2 10.804H0.999997H-3.26335e-06C-3.26335e-06 11.4423 0.511463 12.08 1.264 12.08V11.08ZM0.999997 10.804H2V10.78H0.999997H-3.26335e-06V10.804H0.999997ZM0.999997 10.78L1.99862 10.8325L2.49062 1.47249L1.492 1.42L0.493375 1.36751L0.00137537 10.7275L0.999997 10.78ZM1.492 1.42H2.492C2.492 1.89641 2.0926 2.144 1.792 2.144V1.144V0.144C1.1554 0.144 0.491997 0.631591 0.491997 1.42H1.492ZM1.792 1.144L1.73713 2.14249L3.92113 2.26249L3.976 1.264L4.03086 0.265507L1.84686 0.145506L1.792 1.144ZM3.976 1.264V2.264H4.024V1.264V0.264001H3.976V1.264ZM4.024 1.264L3.96973 2.26253L7.28173 2.44253L7.336 1.444L7.39026 0.445474L4.07826 0.265474L4.024 1.264ZM7.336 1.444V2.444C7.10094 2.444 6.92072 2.33953 6.81072 2.22629C6.69829 2.11056 6.612 1.93878 6.612 1.732H7.612H8.612C8.612 1.05124 8.05941 0.444 7.336 0.444V1.444ZM7.612 1.732H6.612V1.756H7.612H8.612V1.732H7.612ZM7.612 1.756L6.61339 1.70316L6.49339 3.97116L7.492 4.024L8.4906 4.07684L8.6106 1.80884L7.612 1.756ZM7.492 4.024H6.492C6.492 3.78894 6.59647 3.60872 6.70971 3.49872C6.82544 3.3863 6.99722 3.3 7.204 3.3V4.3V5.3C7.88476 5.3 8.492 4.74742 8.492 4.024H7.492ZM7.204 4.3V3.3H7.18V4.3V5.3H7.204V4.3ZM7.18 4.3L7.23408 3.30146L4.35408 3.14546L4.3 4.144L4.24591 5.14254L7.12591 5.29854L7.18 4.3ZM4.3 4.144L3.30134 4.09212L3.25334 5.01612L4.252 5.068L5.25065 5.11988L5.29865 4.19588L4.3 4.144ZM4.252 5.068L4.14968 6.06275L6.24968 6.27875L6.352 5.284L6.45431 4.28925L4.35431 4.07325L4.252 5.068ZM6.352 5.284L6.19994 6.27237C5.92147 6.22953 5.616 5.97369 5.616 5.572H6.616H7.616C7.616 4.88231 7.09453 4.38647 6.50405 4.29563L6.352 5.284ZM6.616 5.572H5.616V5.608H6.616H7.616V5.572H6.616ZM6.616 5.608L5.62446 5.47816L5.36046 7.49416L6.352 7.624L7.34353 7.75384L7.60753 5.73784L6.616 5.608ZM6.352 7.624L5.35545 7.54096C5.3892 7.13592 5.71934 6.888 6.052 6.888V7.888V8.888C6.69666 8.888 7.29079 8.40008 7.34854 7.70705L6.352 7.624ZM6.052 7.888V6.888H6.028V7.888V8.888H6.052V7.888ZM6.028 7.888L6.13365 6.8936L4.21365 6.6896L4.108 7.684L4.00234 8.6784L5.92234 8.8824L6.028 7.888ZM4.108 7.684L3.10933 7.63241L2.94133 10.8844L3.94 10.936L4.93867 10.9876L5.10667 7.73559L4.108 7.684ZM3.94 10.936L2.94294 10.8593C2.97172 10.4852 3.28269 10.212 3.64 10.212V11.212V12.212C4.3093 12.212 4.88427 11.6988 4.93705 11.0127L3.94 10.936ZM11.6632 11.236V10.236H9.01122V11.236V12.236H11.6632V11.236ZM9.01122 11.236V10.236C9.4075 10.236 9.72322 10.5517 9.72322 10.948H8.72322H7.72322C7.72322 11.6563 8.30293 12.236 9.01122 12.236V11.236ZM8.72322 10.948H9.72322V1.576H8.72322H7.72322V10.948H8.72322ZM8.72322 1.576H9.72322C9.72322 1.97229 9.4075 2.288 9.01122 2.288V1.288V0.288C8.30293 0.288 7.72322 0.867715 7.72322 1.576H8.72322ZM9.01122 1.288V2.288H11.6632V1.288V0.288H9.01122V1.288ZM11.6632 1.288V2.288C11.2669 2.288 10.9512 1.97229 10.9512 1.576H11.9512H12.9512C12.9512 0.867715 12.3715 0.288 11.6632 0.288V1.288ZM11.9512 1.576H10.9512V10.948H11.9512H12.9512V1.576H11.9512ZM11.9512 10.948H10.9512C10.9512 10.5517 11.2669 10.236 11.6632 10.236V11.236V12.236C12.3715 12.236 12.9512 11.6563 12.9512 10.948H11.9512ZM22.2409 11.296L22.1828 12.2943L22.2119 12.296H22.2409V11.296ZM19.9729 11.164L20.031 10.1657L20.002 10.164H19.9729V11.164ZM19.6609 10.936L18.8173 11.4729L18.823 11.4818L18.8289 11.4907L19.6609 10.936ZM16.4929 5.428L15.6609 5.9827L15.6843 6.01787L15.7107 6.05093L16.4929 5.428ZM16.2769 5.524H15.2769V5.58365L15.284 5.64287L16.2769 5.524ZM16.8889 10.636H17.8889V10.5764L17.8818 10.5171L16.8889 10.636ZM16.4689 11.056L16.3498 10.0631L16.3416 10.0641L16.4689 11.056ZM14.2249 11.344V12.344H14.2888L14.3522 12.3359L14.2249 11.344ZM13.8529 10.996L12.8545 11.052L12.8551 11.0623L12.8559 11.0727L13.8529 10.996ZM13.3369 1.792H12.3369V1.82001L12.3385 1.84797L13.3369 1.792ZM13.6609 1.336L13.6148 0.337056L13.611 0.337248L13.6609 1.336ZM16.0009 1.228V0.228H15.9779L15.9548 0.229064L16.0009 1.228ZM19.8289 6.46L20.7234 6.01279L20.7076 5.98135L20.6898 5.95109L19.8289 6.46ZM20.0089 6.388L19.0094 6.35867L19.0089 6.37333V6.388H20.0089ZM20.1529 1.48L21.1525 1.50933L21.1529 1.49467V1.48H20.1529ZM20.4529 1.204L20.5153 0.205948L20.4842 0.204001H20.4529V1.204ZM22.7569 1.348L22.6946 2.34605L22.6946 2.34605L22.7569 1.348ZM22.5409 11.02L21.5438 10.9449L21.5409 10.9824V11.02H22.5409ZM22.2409 11.296L22.299 10.2977L20.031 10.1657L19.9729 11.164L19.9148 12.1623L22.1828 12.2943L22.2409 11.296ZM19.9729 11.164V10.164C20.2219 10.164 20.3809 10.2778 20.4325 10.3205C20.4847 10.3638 20.5021 10.3949 20.493 10.3813L19.6609 10.936L18.8289 11.4907C18.8918 11.5851 18.9992 11.7302 19.1564 11.8605C19.313 11.9902 19.592 12.164 19.9729 12.164V11.164ZM19.6609 10.936L20.5046 10.3991C20.5049 10.3996 20.5038 10.3979 20.5011 10.3935C20.4985 10.3892 20.495 10.3834 20.4905 10.3759C20.4815 10.3606 20.4698 10.3407 20.4554 10.3158C20.4265 10.2658 20.3896 10.2008 20.3451 10.1217C20.256 9.96356 20.141 9.75667 20.0068 9.51457C19.7394 9.0323 19.398 8.41399 19.049 7.78899C18.7002 7.16426 18.3401 6.52622 18.0335 6.00168C17.7447 5.50761 17.4589 5.0357 17.2752 4.80507L16.4929 5.428L15.7107 6.05093C15.785 6.1443 15.9926 6.47339 16.3069 7.01094C16.6033 7.51803 16.9556 8.14224 17.3028 8.76402C17.9761 9.9698 18.6708 11.2427 18.8173 11.4729L19.6609 10.936ZM16.4929 5.428L17.325 4.8733C17.1797 4.65543 16.864 4.332 16.3609 4.332V5.332V6.332C15.9299 6.332 15.7101 6.05657 15.6609 5.9827L16.4929 5.428ZM16.3609 5.332V4.332C16.2113 4.332 16.0223 4.36272 15.833 4.46902C15.6402 4.57724 15.5082 4.72955 15.4249 4.87774C15.281 5.13352 15.2769 5.38491 15.2769 5.476H16.2769H17.2769C17.2769 5.49007 17.2763 5.53071 17.2663 5.58737C17.2567 5.64183 17.2328 5.74301 17.168 5.85826C17.0982 5.98245 16.9834 6.11676 16.812 6.21298C16.6441 6.30728 16.4805 6.332 16.3609 6.332V5.332ZM16.2769 5.476H15.2769V5.524H16.2769H17.2769V5.476H16.2769ZM16.2769 5.524L15.284 5.64287L15.896 10.7549L16.8889 10.636L17.8818 10.5171L17.2698 5.40513L16.2769 5.524ZM16.8889 10.636H15.8889V10.648H16.8889H17.8889V10.636H16.8889ZM16.8889 10.648H15.8889C15.8889 10.5389 15.9115 10.4572 15.9316 10.4048C15.9535 10.3477 15.9839 10.295 16.0232 10.2478C16.1113 10.1421 16.2344 10.077 16.3498 10.0631L16.4689 11.056L16.5881 12.0489C17.4445 11.9461 17.8889 11.2301 17.8889 10.648H16.8889ZM16.4689 11.056L16.3416 10.0641L14.0976 10.3521L14.2249 11.344L14.3522 12.3359L16.5962 12.0479L16.4689 11.056ZM14.2249 11.344V10.344H14.1889V11.344V12.344H14.2249V11.344ZM14.1889 11.344V10.344C14.4671 10.344 14.6384 10.4888 14.7053 10.5641C14.7696 10.6364 14.837 10.7499 14.85 10.9193L13.8529 10.996L12.8559 11.0727C12.8809 11.3981 13.0263 11.6856 13.2105 11.8929C13.3975 12.1032 13.7307 12.344 14.1889 12.344V11.344ZM13.8529 10.996L14.8514 10.94L14.3354 1.73603L13.3369 1.792L12.3385 1.84797L12.8545 11.052L13.8529 10.996ZM13.3369 1.792H14.3369V1.768H13.3369H12.3369V1.792H13.3369ZM13.3369 1.768H14.3369C14.3369 1.83031 14.3286 1.87084 14.323 1.89277C14.3167 1.91742 14.3048 1.95447 14.279 2.00001C14.2536 2.0447 14.2008 2.12226 14.1032 2.19433C13.9967 2.27303 13.8597 2.32731 13.7109 2.33475L13.6609 1.336L13.611 0.337248C13.0318 0.366208 12.6912 0.745175 12.5389 1.01399C12.3967 1.26488 12.3369 1.54173 12.3369 1.768H13.3369ZM13.6609 1.336L13.707 2.33494L16.047 2.22694L16.0009 1.228L15.9548 0.229064L13.6148 0.337064L13.6609 1.336ZM16.0009 1.228V2.228H16.0249V1.228V0.228H16.0009V1.228ZM16.0249 1.228V2.228C16.0037 2.228 15.9887 2.22663 15.9808 2.22573C15.9727 2.22479 15.9683 2.2239 15.9677 2.22379C15.9676 2.22376 15.9726 2.22492 15.9796 2.22736C15.9875 2.23014 15.9849 2.22995 15.9709 2.22274C15.9638 2.21904 15.9466 2.20989 15.923 2.19425C15.9036 2.18145 15.8545 2.14783 15.7978 2.09111L16.5049 1.384L17.212 0.676894C17.0861 0.550983 16.9494 0.477124 16.889 0.445887C16.8075 0.403798 16.7223 0.36836 16.6403 0.339642C16.4899 0.287022 16.2674 0.228 16.0249 0.228V1.228ZM16.5049 1.384L15.7978 2.09111C16.0666 2.35989 16.5582 3.05392 17.1709 4.01433C17.7611 4.93944 18.4047 6.01589 18.9681 6.96891L19.8289 6.46L20.6898 5.95109C20.1252 4.99611 19.4668 3.89456 18.857 2.93867C18.2697 2.01808 17.6633 1.12811 17.212 0.676894L16.5049 1.384ZM19.8289 6.46L18.9345 6.90722C19.03 7.09818 19.3269 7.556 19.9369 7.556V6.556V5.556C20.1688 5.556 20.374 5.64253 20.5231 5.76678C20.6498 5.87238 20.7071 5.98031 20.7234 6.01279L19.8289 6.46ZM19.9369 6.556V7.556C20.5798 7.556 20.8525 7.04661 20.9194 6.87939C20.998 6.68296 21.0089 6.49804 21.0089 6.388H20.0089H19.0089C19.0089 6.37396 19.0079 6.27305 19.0625 6.13661C19.0907 6.06598 19.1552 5.93219 19.2927 5.8061C19.4479 5.66383 19.6726 5.556 19.9369 5.556V6.556ZM20.0089 6.388L21.0085 6.41733L21.1525 1.50933L20.1529 1.48L19.1534 1.45067L19.0094 6.35867L20.0089 6.388ZM20.1529 1.48H21.1529C21.1529 1.71322 21.0503 1.88889 20.944 1.99511C20.8378 2.10132 20.6622 2.204 20.4289 2.204V1.204V0.204001C19.7327 0.204001 19.1529 0.783716 19.1529 1.48H20.1529ZM20.4289 1.204V2.204H20.4529V1.204V0.204001H20.4289V1.204ZM20.4529 1.204L20.3906 2.20205L22.6946 2.34605L22.7569 1.348L22.8193 0.349948L20.5153 0.205948L20.4529 1.204ZM22.7569 1.348L22.6946 2.34605C22.5577 2.3375 22.3612 2.27238 22.2077 2.09329C22.0671 1.92927 22.0329 1.75173 22.0329 1.636H23.0329H24.0329C24.0329 1.37627 23.9568 1.06073 23.7262 0.791709C23.4827 0.507625 23.1481 0.370498 22.8193 0.349948L22.7569 1.348ZM23.0329 1.636H22.0329C22.0329 1.63399 22.0325 1.65951 22.0299 1.73269C22.0276 1.79764 22.0241 1.886 22.0195 1.99576C22.0104 2.215 21.9972 2.51491 21.9807 2.87422C21.9478 3.59257 21.9021 4.54508 21.8512 5.55777C21.7491 7.5884 21.6267 9.8436 21.5438 10.9449L22.5409 11.02L23.5381 11.0951C23.7065 8.85782 24.0329 1.98712 24.0329 1.636H23.0329ZM22.5409 11.02H21.5409C21.5409 10.5436 21.9403 10.296 22.2409 10.296V11.296V12.296C22.8775 12.296 23.5409 11.8084 23.5409 11.02H22.5409ZM24.5817 10.588L25.5803 10.5354L25.5803 10.5349L24.5817 10.588ZM24.1137 1.792H23.1137V1.81858L23.1151 1.84513L24.1137 1.792ZM24.3897 1.492V2.492H24.4178L24.4458 2.49042L24.3897 1.492ZM26.3097 1.384L26.3658 2.38242L26.4963 2.37509L26.6204 2.3345L26.3097 1.384ZM33.1857 4.048L32.2348 4.3577L32.2356 4.35997L33.1857 4.048ZM25.5057 11.38L25.2631 12.3501L25.3002 12.3594L25.3379 12.3658L25.5057 11.38ZM25.2297 11.332L24.9941 12.3039L25.0407 12.3152L25.0883 12.322L25.2297 11.332ZM27.2337 3.736L26.9813 2.76838L26.1918 2.97433L26.2351 3.78907L27.2337 3.736ZM27.4977 8.704L26.4991 8.75707L26.5435 9.59251L27.3737 9.69628L27.4977 8.704ZM24.5817 10.588L25.5803 10.5349L25.1123 1.73887L24.1137 1.792L23.1151 1.84513L23.5831 10.6411L24.5817 10.588ZM24.1137 1.792H25.1137C25.1137 1.96578 25.0491 2.12615 24.9395 2.24912C24.8257 2.37665 24.6343 2.492 24.3897 2.492V1.492V0.492001C23.5769 0.492001 23.1137 1.19436 23.1137 1.792H24.1137ZM24.3897 1.492L24.4458 2.49042L26.3658 2.38242L26.3097 1.384L26.2535 0.385579L24.3335 0.493579L24.3897 1.492ZM26.3097 1.384L26.6204 2.3345C27.1362 2.16589 27.7385 2.072 28.3497 2.072V1.072V0.0720003C27.5448 0.0720003 26.7312 0.19411 25.9989 0.433505L26.3097 1.384ZM28.3497 1.072V2.072C30.163 2.072 31.742 2.8446 32.2349 4.3577L33.1857 4.048L34.1365 3.7383C33.2614 1.0514 30.5924 0.0720003 28.3497 0.0720003V1.072ZM33.1857 4.048L32.2356 4.35997C32.4708 5.07624 32.5697 5.7148 32.5697 6.268H33.5697H34.5697C34.5697 5.4772 34.4286 4.62777 34.1358 3.73603L33.1857 4.048ZM33.5697 6.268H32.5697C32.5697 7.63743 31.9848 8.66308 31.0505 9.37344C30.0903 10.1035 28.7207 10.524 27.1857 10.524V11.524V12.524C29.0587 12.524 30.8811 12.0146 32.2609 10.9656C33.6665 9.89693 34.5697 8.29457 34.5697 6.268H33.5697ZM27.1857 11.524V10.524C26.6913 10.524 26.1834 10.481 25.6735 10.3942L25.5057 11.38L25.3379 12.3658C25.9559 12.471 26.576 12.524 27.1857 12.524V11.524ZM25.5057 11.38L25.7482 10.4099C25.5896 10.3702 25.4304 10.3505 25.3711 10.3421L25.2297 11.332L25.0883 12.322C25.1422 12.3296 25.1693 12.3332 25.204 12.3387C25.2341 12.3436 25.2521 12.3474 25.2631 12.3501L25.5057 11.38ZM25.2297 11.332L25.4653 10.3602C25.3585 10.3343 25.4172 10.3272 25.4963 10.4117C25.5373 10.4555 25.5625 10.5017 25.5752 10.5362C25.5864 10.5663 25.5822 10.5716 25.5803 10.5354L24.5817 10.588L23.5831 10.6406C23.6036 11.0312 23.722 11.4427 24.0361 11.7783C24.3342 12.0968 24.7049 12.2337 24.9941 12.3039L25.2297 11.332ZM27.2337 3.736L26.2351 3.78907L26.4991 8.75707L27.4977 8.704L28.4963 8.65094L28.2323 3.68294L27.2337 3.736ZM27.4977 8.704L27.3737 9.69628C27.5416 9.71727 27.6998 9.716 27.7857 9.716V8.716V7.716C27.6796 7.716 27.6458 7.71473 27.6217 7.71172L27.4977 8.704ZM27.7857 8.716V9.716C29.6823 9.716 31.3297 8.31875 31.3297 6.196H30.3297H29.3297C29.3297 7.12126 28.673 7.716 27.7857 7.716V8.716ZM30.3297 6.196H31.3297C31.3297 6.06462 31.3297 5.23985 30.9572 4.41703C30.765 3.99254 30.4577 3.53253 29.9679 3.17934C29.4684 2.8191 28.8421 2.616 28.0977 2.616V3.616V4.616C28.4633 4.616 28.671 4.7099 28.7981 4.80154C28.9349 4.90022 29.0469 5.04696 29.1352 5.24197C29.3237 5.65815 29.3297 6.12338 29.3297 6.196H30.3297ZM28.0977 3.616V2.616C27.7046 2.616 27.3179 2.68055 26.9813 2.76838L27.2337 3.736L27.4861 4.70362C27.7014 4.64745 27.9147 4.616 28.0977 4.616V3.616ZM40.9569 11.08L41.0107 12.0786L41.0194 12.0781L41.0282 12.0775L40.9569 11.08ZM37.8369 11.248V12.248H37.8638L37.8907 12.2466L37.8369 11.248ZM37.7889 11.26V10.26H37.7633L37.7377 10.2613L37.7889 11.26ZM35.4489 11.38V12.38H35.4745L35.5001 12.3787L35.4489 11.38ZM35.1489 11.104L34.1503 11.1565L34.1511 11.1718L34.1524 11.187L35.1489 11.104ZM34.6569 1.744H33.6569V1.77026L33.6583 1.79649L34.6569 1.744ZM34.9329 1.444V2.444H34.9604L34.9878 2.44249L34.9329 1.444ZM37.1169 1.324V0.324001H37.0895L37.062 0.325507L37.1169 1.324ZM37.1649 1.324V2.324H37.1912L37.2175 2.32262L37.1649 1.324ZM40.3569 1.156V0.156001H40.3306L40.3043 0.157383L40.3569 1.156ZM40.6689 1.432L41.6678 1.38607L41.667 1.36749L41.6655 1.34896L40.6689 1.432ZM40.7649 3.52H41.7649V3.49702L41.7638 3.47407L40.7649 3.52ZM40.4889 3.832L40.5403 4.83068L40.5562 4.82986L40.5719 4.82855L40.4889 3.832ZM37.6929 3.976L37.6415 2.97732L36.6362 3.0291L36.6946 4.03404L37.6929 3.976ZM37.7529 5.008L36.7546 5.06604L36.8094 6.008H37.7529V5.008ZM40.1889 5.308L41.1889 5.32107V5.308H40.1889ZM40.1649 7.144L41.1624 7.21525L41.1644 7.18619L41.1648 7.15707L40.1649 7.144ZM37.8729 7.444V6.444H36.8177L36.8743 7.49769L37.8729 7.444ZM37.9329 8.56L36.9343 8.61369L36.988 9.61198L37.9863 9.55857L37.9329 8.56ZM40.8489 8.404V7.404H40.8222L40.7955 7.40543L40.8489 8.404ZM41.1609 8.68H40.1609V8.70011L40.1617 8.7202L41.1609 8.68ZM41.2449 10.768H42.2449V10.7479L42.2441 10.7278L41.2449 10.768ZM40.9569 11.08L40.9031 10.0814L37.7831 10.2494L37.8369 11.248L37.8907 12.2466L41.0107 12.0786L40.9569 11.08ZM37.8369 11.248V10.248C37.7952 10.248 37.7591 10.2506 37.7302 10.2536C37.7011 10.2566 37.6758 10.2606 37.6552 10.2642C37.6153 10.2714 37.583 10.2796 37.5629 10.2851C37.5421 10.2908 37.5252 10.2961 37.5156 10.2991C37.5062 10.3021 37.4978 10.3049 37.4967 10.3053C37.4933 10.3064 37.4972 10.3051 37.5022 10.3035C37.5074 10.3019 37.52 10.2979 37.5367 10.2934C37.5526 10.289 37.581 10.2817 37.6173 10.2752C37.636 10.2719 37.6595 10.2682 37.687 10.2653C37.7142 10.2625 37.7487 10.26 37.7889 10.26V11.26V12.26C37.8306 12.26 37.8667 12.2574 37.8956 12.2544C37.9247 12.2514 37.95 12.2474 37.9706 12.2438C38.0105 12.2366 38.0428 12.2284 38.0629 12.2229C38.0837 12.2172 38.1006 12.2119 38.1102 12.2089C38.1196 12.2059 38.128 12.2031 38.1291 12.2027C38.1325 12.2016 38.1286 12.2029 38.1236 12.2045C38.1184 12.2061 38.1059 12.2101 38.0891 12.2146C38.0732 12.219 38.0448 12.2263 38.0086 12.2328C37.9898 12.2361 37.9663 12.2398 37.9388 12.2427C37.9117 12.2455 37.8771 12.248 37.8369 12.248V11.248ZM37.7889 11.26L37.7377 10.2613L35.3977 10.3813L35.4489 11.38L35.5001 12.3787L37.8401 12.2587L37.7889 11.26ZM35.4489 11.38V10.38H35.4249V11.38V12.38H35.4489V11.38ZM35.4249 11.38V10.38C35.6682 10.38 35.8499 10.4913 35.955 10.5995C36.0578 10.7054 36.1312 10.85 36.1454 11.021L35.1489 11.104L34.1524 11.187C34.1988 11.7443 34.6616 12.38 35.4249 12.38V11.38ZM35.1489 11.104L36.1475 11.0515L35.6555 1.69151L34.6569 1.744L33.6583 1.79649L34.1503 11.1565L35.1489 11.104ZM34.6569 1.744H35.6569V1.72H34.6569H33.6569V1.744H34.6569ZM34.6569 1.72H35.6569C35.6569 1.95322 35.5542 2.12889 35.448 2.23511C35.3418 2.34132 35.1661 2.444 34.9329 2.444V1.444V0.444C34.2366 0.444 33.6569 1.02371 33.6569 1.72H34.6569ZM34.9329 1.444L34.9878 2.44249L37.1718 2.32249L37.1169 1.324L37.062 0.325507L34.878 0.445507L34.9329 1.444ZM37.1169 1.324V2.324H37.1649V1.324V0.324001H37.1169V1.324ZM37.1649 1.324L37.2175 2.32262L40.4095 2.15462L40.3569 1.156L40.3043 0.157383L37.1123 0.325383L37.1649 1.324ZM40.3569 1.156V2.156H40.3809V1.156V0.156001H40.3569V1.156ZM40.3809 1.156V2.156C40.1461 2.156 39.9754 2.05226 39.8776 1.95728C39.7802 1.86261 39.689 1.71419 39.6724 1.51504L40.6689 1.432L41.6655 1.34896C41.6369 1.00581 41.4736 0.719395 41.2712 0.522721C41.0684 0.325745 40.7597 0.156001 40.3809 0.156001V1.156ZM40.6689 1.432L39.67 1.47793L39.766 3.56593L40.7649 3.52L41.7638 3.47407L41.6678 1.38607L40.6689 1.432ZM40.7649 3.52H39.7649V3.544H40.7649H41.7649V3.52H40.7649ZM40.7649 3.544H39.7649C39.7649 3.30916 39.8687 3.13848 39.9636 3.04071C40.0583 2.94326 40.2067 2.85205 40.4059 2.83545L40.4889 3.832L40.5719 4.82855C40.9151 4.79995 41.2015 4.63674 41.3982 4.43429C41.5952 4.23152 41.7649 3.92284 41.7649 3.544H40.7649ZM40.4889 3.832L40.4375 2.83332L37.6415 2.97732L37.6929 3.976L37.7443 4.97468L40.5403 4.83068L40.4889 3.832ZM37.6929 3.976L36.6946 4.03404L36.7546 5.06604L37.7529 5.008L38.7512 4.94996L38.6912 3.91796L37.6929 3.976ZM37.7529 5.008V6.008H39.9009V5.008V4.008H37.7529V5.008ZM39.9009 5.008V6.008C39.7026 6.008 39.5382 5.93013 39.4232 5.82465C39.3023 5.71389 39.1889 5.52671 39.1889 5.284H40.1889H41.1889C41.1889 4.49559 40.5135 4.008 39.9009 4.008V5.008ZM40.1889 5.284H39.1889V5.308H40.1889H41.1889V5.284H40.1889ZM40.1889 5.308L39.189 5.29493L39.165 7.13093L40.1649 7.144L41.1648 7.15707L41.1888 5.32107L40.1889 5.308ZM40.1649 7.144L39.1674 7.07275C39.1769 6.94075 39.2317 6.78822 39.3564 6.65992C39.4876 6.52496 39.6723 6.444 39.8649 6.444V7.444V8.444C40.6457 8.444 41.1196 7.8138 41.1624 7.21525L40.1649 7.144ZM39.8649 7.444V6.444H37.8729V7.444V8.444H39.8649V7.444ZM37.8729 7.444L36.8743 7.49769L36.9343 8.61369L37.9329 8.56L38.9315 8.50631L38.8715 7.39031L37.8729 7.444ZM37.9329 8.56L37.9863 9.55857L40.9023 9.40257L40.8489 8.404L40.7955 7.40543L37.8795 7.56143L37.9329 8.56ZM40.8489 8.404V9.404H40.8729V8.404V7.404H40.8489V8.404ZM40.8729 8.404V9.404C40.6661 9.404 40.4943 9.3177 40.3786 9.20528C40.2654 9.09528 40.1609 8.91506 40.1609 8.68H41.1609H42.1609C42.1609 7.95659 41.5537 7.404 40.8729 7.404V8.404ZM41.1609 8.68L40.1617 8.7202L40.2457 10.8082L41.2449 10.768L42.2441 10.7278L42.1601 8.6398L41.1609 8.68ZM41.2449 10.768H40.2449C40.2449 10.4359 40.4947 10.1105 40.8857 10.0825L40.9569 11.08L41.0282 12.0775C41.7551 12.0255 42.2449 11.4121 42.2449 10.768H41.2449ZM50.8022 10.564L50.4214 9.63932L50.3975 9.64918L50.3741 9.66026L50.8022 10.564ZM49.2062 11.32L48.7781 10.4163L48.7685 10.4208L48.7589 10.4256L49.2062 11.32ZM48.6062 11.212L49.4498 10.6751L49.4401 10.6598L49.4298 10.6449L48.6062 11.212ZM46.7702 8.344L47.6248 7.82474L47.3327 7.344H46.7702V8.344ZM45.3182 8.152L45.5962 7.19144L44.3836 6.8404L44.3194 8.10122L45.3182 8.152ZM45.1742 10.984L46.17 11.0745L46.1719 11.0547L46.1729 11.0348L45.1742 10.984ZM44.9102 11.224L44.8578 12.2226L44.884 12.224H44.9102V11.224ZM42.3902 11.092L42.4425 10.0934L42.4163 10.092H42.3902V11.092ZM42.1622 10.828L41.1634 10.7775L41.1622 10.8027V10.828H42.1622ZM42.6422 1.336L41.6471 1.2365L41.6447 1.26095L41.6434 1.2855L42.6422 1.336ZM42.9062 1.108L42.9547 0.109182L42.9305 0.108001H42.9062V1.108ZM45.1262 1.216L45.0776 2.21482L45.2527 2.22334L45.4202 2.17178L45.1262 1.216ZM49.8542 7.192L49.1308 6.50152L48.6276 7.02865L48.9753 7.66909L49.8542 7.192ZM45.5582 3.58L45.3156 2.60986L44.5976 2.78936L44.5595 3.52852L45.5582 3.58ZM45.4382 5.908L44.4395 5.85652L44.4036 6.55259L45.0442 6.82715L45.4382 5.908ZM50.8022 10.564L50.3741 9.66026L48.7781 10.4163L49.2062 11.32L49.6342 12.2237L51.2302 11.4677L50.8022 10.564ZM49.2062 11.32L48.7589 10.4256C48.7852 10.4124 48.8414 10.392 48.9182 10.392V11.392V12.392C49.1869 12.392 49.4351 12.3236 49.6534 12.2144L49.2062 11.32ZM48.9182 11.392V10.392C48.9949 10.392 49.1076 10.4085 49.2257 10.4726C49.3443 10.537 49.415 10.6204 49.4498 10.6751L48.6062 11.212L47.7625 11.7489C48.0339 12.1753 48.4634 12.392 48.9182 12.392V11.392ZM48.6062 11.212L49.4298 10.6449C48.9405 9.93431 48.1954 8.76385 47.6248 7.82474L46.7702 8.344L45.9155 8.86326C46.4969 9.82016 47.2638 11.0257 47.7825 11.7791L48.6062 11.212ZM46.7702 8.344V7.344C46.3434 7.344 45.947 7.29298 45.5962 7.19144L45.3182 8.152L45.0401 9.11256C45.6013 9.27502 46.1889 9.344 46.7702 9.344V8.344ZM45.3182 8.152L44.3194 8.10122L44.1754 10.9332L45.1742 10.984L46.1729 11.0348L46.3169 8.20278L45.3182 8.152ZM45.1742 10.984L44.1783 10.8935C44.2025 10.6273 44.4394 10.224 44.9342 10.224V11.224V12.224C45.6929 12.224 46.1218 11.6047 46.17 11.0745L45.1742 10.984ZM44.9342 11.224V10.224H44.9102V11.224V12.224H44.9342V11.224ZM44.9102 11.224L44.9625 10.2254L42.4425 10.0934L42.3902 11.092L42.3378 12.0906L44.8578 12.2226L44.9102 11.224ZM42.3902 11.092V10.092C42.8552 10.092 43.1622 10.4651 43.1622 10.852H42.1622H41.1622C41.1622 11.5029 41.6851 12.092 42.3902 12.092V11.092ZM42.1622 10.852H43.1622V10.828H42.1622H41.1622V10.852H42.1622ZM42.1622 10.828L43.1609 10.8785L43.6409 1.3865L42.6422 1.336L41.6434 1.2855L41.1634 10.7775L42.1622 10.828ZM42.6422 1.336L43.6372 1.4355C43.6172 1.63585 43.5244 1.79194 43.4162 1.8964C43.3074 2.00146 43.1251 2.108 42.8822 2.108V1.108V0.108001C42.1914 0.108001 41.7044 0.664098 41.6471 1.2365L42.6422 1.336ZM42.8822 1.108V2.108H42.9062V1.108V0.108001H42.8822V1.108ZM42.9062 1.108L42.8576 2.10682L45.0776 2.21482L45.1262 1.216L45.1747 0.217182L42.9547 0.109182L42.9062 1.108ZM45.1262 1.216L45.4202 2.17178C45.7949 2.0565 46.1758 2 46.5422 2V1V4.76837e-07C45.9725 4.76837e-07 45.3934 0.0875018 44.8321 0.260222L45.1262 1.216ZM46.5422 1V2C48.3548 2 49.7542 3.24515 49.7542 4.744H50.7542H51.7542C51.7542 1.85085 49.1455 4.76837e-07 46.5422 4.76837e-07V1ZM50.7542 4.744H49.7542C49.7542 5.22272 49.6282 5.98038 49.1308 6.50152L49.8542 7.192L50.5775 7.88248C51.5921 6.81962 51.7542 5.44128 51.7542 4.744H50.7542ZM49.8542 7.192L48.9753 7.66909C49.2851 8.23971 49.569 8.92496 49.7782 9.49337C49.8817 9.77471 49.9637 10.0186 50.0186 10.194C50.0463 10.2825 50.0653 10.3479 50.0763 10.3891C50.0821 10.4105 50.0836 10.4176 50.0829 10.4144C50.0826 10.413 50.0801 10.4013 50.0771 10.3831C50.076 10.3758 50.0662 10.3178 50.0662 10.24H51.0662H52.0662C52.0662 10.1094 52.0383 9.99439 52.0372 9.98925C52.0284 9.94889 52.0179 9.90767 52.0079 9.87034C51.9874 9.79401 51.9598 9.70067 51.9273 9.59678C51.8618 9.38742 51.7691 9.11229 51.6551 8.80263C51.4293 8.18904 51.1072 7.40429 50.733 6.71491L49.8542 7.192ZM51.0662 10.24H50.0662C50.0662 10.1235 50.0991 9.96823 50.2029 9.82603C50.2993 9.69385 50.4034 9.64673 50.4214 9.63932L50.8022 10.564L51.1829 11.4887C51.4049 11.3973 51.641 11.2482 51.8184 11.005C52.0032 10.7518 52.0662 10.4765 52.0662 10.24H51.0662ZM45.5582 3.58L44.5595 3.52852L44.4395 5.85652L45.4382 5.908L46.4368 5.95948L46.5568 3.63148L45.5582 3.58ZM45.4382 5.908L45.0442 6.82715C45.401 6.98004 45.8708 7.1 46.3502 7.1V6.1V5.1C46.1815 5.1 45.9793 5.05196 45.8321 4.98886L45.4382 5.908ZM46.3502 6.1V7.1C47.1048 7.1 47.7233 6.81231 48.1375 6.32357C48.5263 5.8648 48.6702 5.30699 48.6702 4.84H47.6702H46.6702C46.6702 4.92502 46.64 4.9972 46.6118 5.03043C46.6016 5.0425 46.5879 5.05472 46.5615 5.06644C46.5339 5.07863 46.4701 5.1 46.3502 5.1V6.1ZM47.6702 4.84H48.6702C48.6702 3.35556 47.3849 2.508 46.1102 2.508V3.508V4.508C46.351 4.508 46.5032 4.58243 46.5781 4.64567C46.6429 4.70031 46.6702 4.75846 46.6702 4.84H47.6702ZM46.1102 3.508V2.508C45.8527 2.508 45.5792 2.54397 45.3156 2.60986L45.5582 3.58L45.8007 4.55014C45.9212 4.52003 46.0316 4.508 46.1102 4.508V3.508ZM51.7779 11.152L50.8012 11.3669L50.8035 11.3769L51.7779 11.152ZM51.3819 9.352L52.3585 9.13714L52.3319 9.01586L52.2763 8.90479L51.3819 9.352ZM52.5099 6.076L53.3512 5.5352L53.344 5.52441L52.5099 6.076ZM56.7579 1.408L57.7311 1.17786L57.7258 1.15544L57.7194 1.13328L56.7579 1.408ZM57.1779 3.184L56.2047 3.41414L56.2151 3.45774L56.2292 3.50024L57.1779 3.184ZM56.2059 6.268L57.0338 5.70715L57.0281 5.69868L57.0222 5.69033L56.2059 6.268ZM52.1139 11.44L52.2134 10.445L52.1638 10.44H52.1139V11.44ZM51.7779 11.152L52.7545 10.9371L52.3585 9.13714L51.3819 9.352L50.4053 9.56686L50.8013 11.3669L51.7779 11.152ZM51.3819 9.352L52.2763 8.90479C52.3167 8.98547 52.3372 9.05582 52.348 9.10166C52.3592 9.14877 52.3641 9.18696 52.3664 9.2105C52.3706 9.25244 52.3699 9.28558 52.3699 9.268H51.3699H50.3699C50.3699 9.27442 50.3692 9.33756 50.3764 9.4095C50.3825 9.47052 50.4013 9.62682 50.4875 9.79922L51.3819 9.352ZM51.3699 9.268H52.3699C52.3699 9.57047 52.1964 9.7928 52.0393 9.90187C51.9706 9.94956 51.905 9.97761 51.8504 9.99467C51.802 10.0098 51.7251 10.028 51.6219 10.028V9.028V8.028C51.3829 8.028 51.1207 8.10484 50.8985 8.25913C50.6334 8.44321 50.3699 8.78554 50.3699 9.268H51.3699ZM51.6219 9.028V10.028H51.6699V9.028V8.028H51.6219V9.028ZM51.6699 9.028V10.028C52.2351 10.028 52.8512 9.8822 53.3579 9.5655C53.8738 9.24308 54.3739 8.66666 54.3739 7.84H53.3739H52.3739C52.3739 7.83524 52.3748 7.82562 52.3783 7.81424C52.3799 7.80908 52.3816 7.80484 52.3831 7.8017C52.3846 7.7986 52.3856 7.79713 52.3855 7.79729C52.3844 7.79893 52.3637 7.82836 52.2979 7.8695C52.1566 7.9578 51.9207 8.028 51.6699 8.028V9.028ZM53.3739 7.84H54.3739C54.3739 7.42757 54.2514 7.07869 54.0763 6.73425C53.9135 6.41413 53.6663 6.02554 53.3511 5.53524L52.5099 6.076L51.6687 6.61676C52.0015 7.13446 52.1863 7.42987 52.2935 7.64075C52.3432 7.73843 52.362 7.79121 52.3693 7.8165C52.3746 7.83506 52.3739 7.83849 52.3739 7.84H53.3739ZM52.5099 6.076L53.344 5.52441C52.9272 4.89405 52.8019 4.41146 52.8019 4.072H51.8019H50.8019C50.8019 4.90854 51.1086 5.76995 51.6758 6.62759L52.5099 6.076ZM51.8019 4.072H52.8019C52.8019 3.56003 53.0777 3.10009 53.6708 2.72266C54.277 2.33688 55.1277 2.108 55.9779 2.108V1.108V0.108001C54.8121 0.108001 53.5748 0.413126 52.597 1.03534C51.6061 1.66591 50.8019 2.68797 50.8019 4.072H51.8019ZM55.9779 1.108V2.108C56.0816 2.108 56.1489 2.11084 56.1932 2.11502C56.2399 2.11943 56.2312 2.12281 56.1935 2.10993C56.1498 2.09503 56.0573 2.05482 55.9644 1.96192C55.8676 1.86515 55.8182 1.75906 55.7964 1.68272L56.7579 1.408L57.7194 1.13328C57.6616 0.930943 57.5552 0.724352 57.3786 0.547705C57.2058 0.374927 57.0105 0.275473 56.8393 0.217068C56.537 0.113933 56.2066 0.108001 55.9779 0.108001V1.108ZM56.7579 1.408L55.7847 1.63814L56.2047 3.41414L57.1779 3.184L58.1511 2.95386L57.7311 1.17786L56.7579 1.408ZM57.1779 3.184L56.2292 3.50024C56.2041 3.42501 56.1958 3.36294 56.1925 3.32704C56.1894 3.29294 56.1899 3.26624 56.1899 3.28H57.1899H58.1899C58.1899 3.2638 58.1961 3.07618 58.1266 2.86776L57.1779 3.184ZM57.1899 3.28H56.1899C56.1899 3.01722 56.3299 2.809 56.477 2.69465C56.5419 2.64417 56.6075 2.61105 56.668 2.5892C56.7193 2.57067 56.8115 2.544 56.9379 2.544V3.544V4.544C57.2183 4.544 57.4935 4.43769 57.7048 4.27335C57.9599 4.075 58.1899 3.73478 58.1899 3.28H57.1899ZM56.9379 3.544V2.544H56.8659V3.544V4.544H56.9379V3.544ZM56.8659 3.544V2.544C56.3758 2.544 55.8097 2.63095 55.3278 2.90155C54.8037 3.19582 54.3539 3.73712 54.3539 4.516H55.3539H56.3539C56.3539 4.53342 56.3462 4.57896 56.3166 4.62408C56.2919 4.66178 56.2755 4.66313 56.307 4.64545C56.3399 4.627 56.4042 4.59987 56.5074 4.57807C56.6086 4.55667 56.7305 4.544 56.8659 4.544V3.544ZM55.3539 4.516H54.3539C54.3539 4.94701 54.5066 5.35416 54.6776 5.69786C54.8551 6.05479 55.1019 6.43911 55.3896 6.84567L56.2059 6.268L57.0222 5.69033C56.7579 5.31689 56.5787 5.02921 56.4683 4.80714C56.3512 4.57184 56.3539 4.49299 56.3539 4.516H55.3539ZM56.2059 6.268L55.378 6.82885C55.8009 7.45309 55.9259 7.93289 55.9259 8.284H56.9259H57.9259C57.9259 7.43511 57.619 6.57092 57.0338 5.70715L56.2059 6.268ZM56.9259 8.284H55.9259C55.9259 8.8272 55.6116 9.34273 54.937 9.77043C54.2577 10.201 53.3317 10.452 52.4619 10.452V11.452V12.452C53.6681 12.452 54.9741 12.115 56.0078 11.4596C57.0462 10.8013 57.9259 9.7328 57.9259 8.284H56.9259ZM52.4619 11.452V10.452C52.3363 10.452 52.2765 10.4513 52.2134 10.445L52.1139 11.44L52.0144 12.435C52.1913 12.4527 52.3475 12.452 52.4619 12.452V11.452ZM52.1139 11.44V10.44C52.3204 10.44 52.4716 10.5251 52.5594 10.6019C52.647 10.6786 52.72 10.7872 52.7523 10.9271L51.7779 11.152L50.8035 11.3769C50.9258 11.9066 51.4148 12.44 52.1139 12.44V11.44ZM9.724 24.468L9.33008 23.5489L9.31743 23.5543L9.30494 23.56L9.724 24.468ZM8.008 25.26L8.37939 26.1885L8.40349 26.1788L8.42706 26.168L8.008 25.26ZM7.432 25.2L6.62019 25.7839L6.63114 25.7991L6.64264 25.8139L7.432 25.2ZM4.624 20.88L5.41085 20.2629L5.37368 20.2155L5.33109 20.1729L4.624 20.88ZM4.6 20.832H5.6V18.8998L4.02253 20.0156L4.6 20.832ZM4.108 21.18L3.53053 20.3636L3.108 20.6625V21.18H4.108ZM4.108 17.928H3.108V20.2012L4.78372 18.6652L4.108 17.928ZM8.056 15.372L8.83461 14.7445L8.82996 14.7388L8.056 15.372ZM9.352 16.98L8.5734 17.6075L8.5829 17.6193L8.59274 17.6308L9.352 16.98ZM9.256 17.544L8.71912 16.7003L8.71015 16.7061L8.7013 16.7119L9.256 17.544ZM5.248 20.376L4.6661 19.5627L5.58855 21.3162L5.248 20.376ZM6.772 19.824L7.11255 20.7642L7.12807 20.7586L7.14339 20.7525L6.772 19.824ZM9.724 24.468L9.30494 23.56L7.58894 24.352L8.008 25.26L8.42706 26.168L10.1431 25.376L9.724 24.468ZM8.008 25.26L7.63661 24.3315C7.61649 24.3396 7.59788 24.3472 7.58226 24.3537C7.56433 24.3611 7.55502 24.365 7.54201 24.3703C7.53075 24.3749 7.52311 24.378 7.51733 24.3803C7.51166 24.3825 7.50963 24.3832 7.51018 24.383C7.51028 24.383 7.52812 24.3766 7.55782 24.3702C7.58872 24.3635 7.63627 24.356 7.696 24.356V25.356V26.356C7.90771 26.356 8.07883 26.3032 8.17582 26.269C8.25003 26.2428 8.37086 26.1919 8.37939 26.1885L8.008 25.26ZM7.696 25.356V24.356C7.82736 24.356 7.95671 24.3922 8.06522 24.4558C8.16232 24.5127 8.21118 24.573 8.22135 24.5861L7.432 25.2L6.64264 25.8139C6.84223 26.0705 7.1883 26.356 7.696 26.356V25.356ZM7.432 25.2L8.2438 24.6161C8.02073 24.306 7.46379 23.4196 6.86869 22.4785C6.30722 21.5906 5.69121 20.6203 5.41085 20.2629L4.624 20.88L3.83714 21.4971C4.03679 21.7517 4.57877 22.5994 5.1783 23.5475C5.7442 24.4424 6.35126 25.41 6.62019 25.7839L7.432 25.2ZM4.624 20.88L5.33109 20.1729C5.42403 20.2658 5.47539 20.3557 5.50192 20.4088C5.51823 20.4414 5.5377 20.4853 5.55499 20.5397C5.56846 20.582 5.6 20.6892 5.6 20.832H4.6H3.6C3.6 21.0807 3.69333 21.2637 3.71307 21.3032C3.7486 21.3743 3.81197 21.4822 3.9169 21.5871L4.624 20.88ZM4.6 20.832L4.02253 20.0156L3.53053 20.3636L4.108 21.18L4.68546 21.9964L5.17746 21.6484L4.6 20.832ZM4.108 21.18H3.108V24.984H4.108H5.108V21.18H4.108ZM4.108 24.984H3.108C3.108 24.7467 3.2121 24.5647 3.32439 24.4524C3.43668 24.3401 3.61872 24.236 3.856 24.236V25.236V26.236C4.54028 26.236 5.108 25.6683 5.108 24.984H4.108ZM3.856 25.236V24.236H1.336V25.236V26.236H3.856V25.236ZM1.336 25.236V24.236C1.77494 24.236 2.084 24.5949 2.084 24.984H1.084H0.0839968C0.0839968 25.6371 0.609057 26.236 1.336 26.236V25.236ZM1.084 24.984H2.084V15.564H1.084H0.0839968V24.984H1.084ZM1.084 15.564H2.084C2.084 15.7488 2.01154 15.9427 1.8631 16.0911C1.71466 16.2395 1.52075 16.312 1.336 16.312V15.312V14.312C0.639715 14.312 0.0839968 14.8677 0.0839968 15.564H1.084ZM1.336 15.312V16.312H3.856V15.312V14.312H1.336V15.312ZM3.856 15.312V16.312C3.46688 16.312 3.108 16.0029 3.108 15.564H4.108H5.108C5.108 14.8371 4.50912 14.312 3.856 14.312V15.312ZM4.108 15.564H3.108V17.928H4.108H5.108V15.564H4.108ZM4.108 17.928L4.78372 18.6652C4.78333 18.6655 4.78669 18.6625 4.79585 18.6543C4.80418 18.6468 4.81537 18.6369 4.82941 18.6245C4.85744 18.5997 4.89543 18.5662 4.94217 18.5254C5.03562 18.4436 5.16281 18.3333 5.31349 18.2042C5.61537 17.9455 6.00843 17.6142 6.4118 17.2885C6.8184 16.9601 7.22152 16.6486 7.54715 16.4235C7.71172 16.3097 7.83764 16.2311 7.9234 16.1851C7.96652 16.1619 7.98232 16.1563 7.97597 16.1586C7.97193 16.1601 7.95316 16.167 7.92248 16.1741C7.89389 16.1806 7.83528 16.192 7.756 16.192V15.192V14.192C7.54695 14.192 7.37299 14.2491 7.27927 14.2839C7.17011 14.3245 7.06672 14.3749 6.97683 14.4232C6.79657 14.5201 6.60121 14.646 6.40972 14.7784C6.02322 15.0456 5.57509 15.3934 5.15519 15.7325C4.31481 16.4112 3.52172 17.1089 3.43227 17.1908L4.108 17.928ZM7.756 15.192V16.192C7.62374 16.192 7.5003 16.1554 7.40253 16.0991C7.35872 16.0739 7.32782 16.0492 7.30899 16.0323C7.29953 16.0238 7.29272 16.0169 7.28845 16.0124C7.28417 16.0078 7.28207 16.0053 7.28204 16.0052L8.056 15.372L8.82996 14.7388C8.61286 14.4734 8.25972 14.192 7.756 14.192V15.192ZM8.056 15.372L7.2774 15.9995L8.5734 17.6075L9.352 16.98L10.1306 16.3525L8.83459 14.7445L8.056 15.372ZM9.352 16.98L8.59274 17.6308C8.55936 17.5918 8.46 17.4537 8.46 17.232H9.46H10.46C10.46 16.8423 10.2886 16.5362 10.1112 16.3292L9.352 16.98ZM9.46 17.232H8.46C8.46 17.0817 8.50772 16.9498 8.57179 16.8523C8.63139 16.7616 8.69394 16.7164 8.71912 16.7003L9.256 17.544L9.79288 18.3877C10.1043 18.1895 10.46 17.8057 10.46 17.232H9.46ZM9.256 17.544L8.7013 16.7119C8.17983 17.0596 6.05037 18.5723 4.6661 19.5627L5.248 20.376L5.8299 21.1893C7.22963 20.1877 9.32417 18.7004 9.8107 18.3761L9.256 17.544ZM5.248 20.376L5.58855 21.3162L7.11255 20.7642L6.772 19.824L6.43144 18.8838L4.90744 19.4358L5.248 20.376ZM6.772 19.824L7.14339 20.7525C7.16745 20.7429 7.18938 20.7337 7.20756 20.7259C7.21668 20.7221 7.22538 20.7183 7.23302 20.715C7.24132 20.7115 7.24724 20.7089 7.25404 20.706C7.26704 20.7004 7.27559 20.6968 7.28242 20.694C7.28563 20.6927 7.28794 20.6918 7.28953 20.6912C7.29112 20.6906 7.2918 20.6903 7.2917 20.6903C7.29164 20.6904 7.28761 20.6919 7.28045 20.694C7.27323 20.6962 7.26203 20.6994 7.24746 20.7026C7.21784 20.7092 7.17409 20.716 7.12 20.716V19.716V18.716C6.89311 18.716 6.71022 18.7732 6.60029 18.8137C6.54544 18.8339 6.49633 18.8548 6.4662 18.8677C6.42948 18.8835 6.416 18.8894 6.40061 18.8955L6.772 19.824ZM7.12 19.716V20.716C6.83246 20.716 6.70714 20.5624 6.81088 20.6497C6.86755 20.6974 6.96302 20.7952 7.09363 20.9585C7.35048 21.2796 7.65218 21.7382 7.94662 22.2398C8.23838 22.7368 8.50623 23.2472 8.69796 23.6576C8.79435 23.864 8.86578 24.0329 8.91079 24.1553C8.93345 24.2169 8.945 24.2549 8.94969 24.2726C8.95862 24.3064 8.94 24.2534 8.94 24.156H9.94H10.94C10.94 23.9911 10.9052 23.8443 10.8833 23.7617C10.8572 23.6629 10.8234 23.5617 10.7879 23.465C10.7165 23.2708 10.6199 23.0464 10.51 22.8112C10.2893 22.3386 9.99162 21.7727 9.67138 21.2272C9.35381 20.6863 8.99701 20.1362 8.65537 19.7091C8.48672 19.4983 8.29795 19.2872 8.09868 19.1195C7.94648 18.9914 7.59354 18.716 7.12 18.716V19.716ZM9.94 24.156H8.94C8.94 24.084 8.95485 23.9507 9.04172 23.8086C9.13291 23.6593 9.25376 23.5816 9.33008 23.5489L9.724 24.468L10.1179 25.3871C10.3622 25.2824 10.5911 25.1087 10.7483 24.8515C10.9011 24.6013 10.94 24.348 10.94 24.156H9.94ZM16.8917 25.08L16.9455 26.0786L16.9543 26.0781L16.963 26.0775L16.8917 25.08ZM13.7717 25.248V26.248H13.7987L13.8255 26.2466L13.7717 25.248ZM13.7237 25.26V24.26H13.6981L13.6725 24.2613L13.7237 25.26ZM11.3837 25.38V26.38H11.4094L11.435 26.3787L11.3837 25.38ZM11.0837 25.104L10.0851 25.1565L10.0859 25.1718L10.0872 25.187L11.0837 25.104ZM10.5917 15.744H9.59175V15.7703L9.59313 15.7965L10.5917 15.744ZM10.8677 15.444V16.444H10.8952L10.9226 16.4425L10.8677 15.444ZM13.0517 15.324V14.324H13.0243L12.9969 14.3255L13.0517 15.324ZM13.0997 15.324V16.324H13.126L13.1523 16.3226L13.0997 15.324ZM16.2917 15.156V14.156H16.2654L16.2392 14.1574L16.2917 15.156ZM16.6037 15.432L17.6027 15.3861L17.6018 15.3675L17.6003 15.349L16.6037 15.432ZM16.6997 17.52H17.6997V17.497L17.6987 17.4741L16.6997 17.52ZM16.4237 17.832L16.4752 18.8307L16.491 18.8299L16.5068 18.8285L16.4237 17.832ZM13.6277 17.976L13.5763 16.9773L12.571 17.0291L12.6294 18.034L13.6277 17.976ZM13.6877 19.008L12.6894 19.066L12.7442 20.008H13.6877V19.008ZM16.1237 19.308L17.1237 19.3211V19.308H16.1237ZM16.0997 21.144L17.0972 21.2152L17.0993 21.1862L17.0997 21.1571L16.0997 21.144ZM13.8077 21.444V20.444H12.7525L12.8092 21.4977L13.8077 21.444ZM13.8677 22.56L12.8692 22.6137L12.9229 23.612L13.9212 23.5586L13.8677 22.56ZM16.7837 22.404V21.404H16.757L16.7303 21.4054L16.7837 22.404ZM17.0957 22.68H16.0957V22.7001L16.0966 22.7202L17.0957 22.68ZM17.1797 24.768H18.1797V24.7479L18.1789 24.7278L17.1797 24.768ZM16.8917 25.08L16.838 24.0814L13.718 24.2494L13.7717 25.248L13.8255 26.2466L16.9455 26.0786L16.8917 25.08ZM13.7717 25.248V24.248C13.7301 24.248 13.6939 24.2506 13.665 24.2536C13.6359 24.2566 13.6106 24.2606 13.5901 24.2642C13.5501 24.2714 13.5179 24.2796 13.4978 24.2851C13.4769 24.2908 13.46 24.2961 13.4504 24.2991C13.441 24.3021 13.4326 24.3049 13.4315 24.3053C13.4281 24.3064 13.432 24.3051 13.437 24.3035C13.4422 24.3019 13.4548 24.2979 13.4715 24.2934C13.4875 24.289 13.5158 24.2817 13.5521 24.2752C13.5708 24.2719 13.5944 24.2682 13.6218 24.2653C13.649 24.2625 13.6836 24.26 13.7237 24.26V25.26V26.26C13.7654 26.26 13.8016 26.2574 13.8305 26.2544C13.8596 26.2514 13.8849 26.2474 13.9054 26.2438C13.9454 26.2366 13.9776 26.2284 13.9977 26.2229C14.0186 26.2172 14.0354 26.2119 14.0451 26.2089C14.0545 26.2059 14.0629 26.2031 14.064 26.2027C14.0674 26.2016 14.0635 26.2029 14.0585 26.2045C14.0533 26.2061 14.0407 26.2101 14.024 26.2146C14.008 26.219 13.9797 26.2263 13.9434 26.2328C13.9247 26.2361 13.9011 26.2398 13.8737 26.2427C13.8465 26.2455 13.8119 26.248 13.7717 26.248V25.248ZM13.7237 25.26L13.6725 24.2613L11.3325 24.3813L11.3837 25.38L11.435 26.3787L13.775 26.2587L13.7237 25.26ZM11.3837 25.38V24.38H11.3597V25.38V26.38H11.3837V25.38ZM11.3597 25.38V24.38C11.603 24.38 11.7848 24.4913 11.8898 24.5995C11.9926 24.7054 12.066 24.85 12.0803 25.021L11.0837 25.104L10.0872 25.187C10.1336 25.7443 10.5965 26.38 11.3597 26.38V25.38ZM11.0837 25.104L12.0824 25.0515L11.5904 15.6915L10.5917 15.744L9.59313 15.7965L10.0851 25.1565L11.0837 25.104ZM10.5917 15.744H11.5917V15.72H10.5917H9.59175V15.744H10.5917ZM10.5917 15.72H11.5917C11.5917 15.9532 11.4891 16.1289 11.3829 16.2351C11.2766 16.3413 11.101 16.444 10.8677 16.444V15.444V14.444C10.1715 14.444 9.59175 15.0237 9.59175 15.72H10.5917ZM10.8677 15.444L10.9226 16.4425L13.1066 16.3225L13.0517 15.324L12.9969 14.3255L10.8129 14.4455L10.8677 15.444ZM13.0517 15.324V16.324H13.0997V15.324V14.324H13.0517V15.324ZM13.0997 15.324L13.1523 16.3226L16.3443 16.1546L16.2917 15.156L16.2392 14.1574L13.0472 14.3254L13.0997 15.324ZM16.2917 15.156V16.156H16.3157V15.156V14.156H16.2917V15.156ZM16.3157 15.156V16.156C16.0809 16.156 15.9102 16.0523 15.8125 15.9573C15.715 15.8626 15.6238 15.7142 15.6072 15.515L16.6037 15.432L17.6003 15.349C17.5717 15.0058 17.4085 14.7194 17.206 14.5227C17.0033 14.3257 16.6946 14.156 16.3157 14.156V15.156ZM16.6037 15.432L15.6048 15.4779L15.7008 17.5659L16.6997 17.52L17.6987 17.4741L17.6027 15.3861L16.6037 15.432ZM16.6997 17.52H15.6997V17.544H16.6997H17.6997V17.52H16.6997ZM16.6997 17.544H15.6997C15.6997 17.3092 15.8035 17.1385 15.8985 17.0407C15.9931 16.9433 16.1416 16.8521 16.3407 16.8355L16.4237 17.832L16.5068 18.8285C16.8499 18.8 17.1364 18.6367 17.333 18.4343C17.53 18.2315 17.6997 17.9228 17.6997 17.544H16.6997ZM16.4237 17.832L16.3723 16.8333L13.5763 16.9773L13.6277 17.976L13.6792 18.9747L16.4752 18.8307L16.4237 17.832ZM13.6277 17.976L12.6294 18.034L12.6894 19.066L13.6877 19.008L14.6861 18.95L14.6261 17.918L13.6277 17.976ZM13.6877 19.008V20.008H15.8357V19.008V18.008H13.6877V19.008ZM15.8357 19.008V20.008C15.6375 20.008 15.4731 19.9301 15.358 19.8247C15.2372 19.7139 15.1237 19.5267 15.1237 19.284H16.1237H17.1237C17.1237 18.4956 16.4483 18.008 15.8357 18.008V19.008ZM16.1237 19.284H15.1237V19.308H16.1237H17.1237V19.284H16.1237ZM16.1237 19.308L15.1238 19.2949L15.0998 21.1309L16.0997 21.144L17.0997 21.1571L17.1237 19.3211L16.1237 19.308ZM16.0997 21.144L15.1023 21.0728C15.1117 20.9407 15.1665 20.7882 15.2913 20.6599C15.4225 20.525 15.6072 20.444 15.7997 20.444V21.444V22.444C16.5805 22.444 17.0545 21.8138 17.0972 21.2152L16.0997 21.144ZM15.7997 21.444V20.444H13.8077V21.444V22.444H15.7997V21.444ZM13.8077 21.444L12.8092 21.4977L12.8692 22.6137L13.8677 22.56L14.8663 22.5063L14.8063 21.3903L13.8077 21.444ZM13.8677 22.56L13.9212 23.5586L16.8372 23.4026L16.7837 22.404L16.7303 21.4054L13.8143 21.5614L13.8677 22.56ZM16.7837 22.404V23.404H16.8077V22.404V21.404H16.7837V22.404ZM16.8077 22.404V23.404C16.601 23.404 16.4292 23.3177 16.3135 23.2053C16.2002 23.0953 16.0957 22.9151 16.0957 22.68H17.0957H18.0957C18.0957 21.9566 17.4885 21.404 16.8077 21.404V22.404ZM17.0957 22.68L16.0966 22.7202L16.1806 24.8082L17.1797 24.768L18.1789 24.7278L18.0949 22.6398L17.0957 22.68ZM17.1797 24.768H16.1797C16.1797 24.4359 16.4295 24.1105 16.8205 24.0825L16.8917 25.08L16.963 26.0775C17.69 26.0255 18.1797 25.4121 18.1797 24.768H17.1797ZM24.433 25.08L24.4868 26.0786L24.4955 26.0781L24.5042 26.0775L24.433 25.08ZM21.313 25.248V26.248H21.3399L21.3668 26.2466L21.313 25.248ZM21.265 25.26V24.26H21.2394L21.2138 24.2613L21.265 25.26ZM18.925 25.38V26.38H18.9506L18.9762 26.3787L18.925 25.38ZM18.625 25.104L17.6264 25.1565L17.6272 25.1718L17.6285 25.187L18.625 25.104ZM18.133 15.744H17.133V15.7703L17.1344 15.7965L18.133 15.744ZM18.409 15.444V16.444H18.4364L18.4639 16.4425L18.409 15.444ZM20.593 15.324V14.324H20.5655L20.5381 14.3255L20.593 15.324ZM20.641 15.324V16.324H20.6673L20.6936 16.3226L20.641 15.324ZM23.833 15.156V14.156H23.8067L23.7804 14.1574L23.833 15.156ZM24.145 15.432L25.1439 15.3861L25.1431 15.3675L25.1415 15.349L24.145 15.432ZM24.241 17.52H25.241V17.497L25.2399 17.4741L24.241 17.52ZM23.965 17.832L24.0164 18.8307L24.0323 18.8299L24.048 18.8285L23.965 17.832ZM21.169 17.976L21.1176 16.9773L20.1123 17.0291L20.1707 18.034L21.169 17.976ZM21.229 19.008L20.2307 19.066L20.2854 20.008H21.229V19.008ZM23.665 19.308L24.665 19.3211V19.308H23.665ZM23.641 21.144L24.6385 21.2152L24.6405 21.1862L24.6409 21.1571L23.641 21.144ZM21.349 21.444V20.444H20.2938L20.3504 21.4977L21.349 21.444ZM21.409 22.56L20.4104 22.6137L20.4641 23.612L21.4624 23.5586L21.409 22.56ZM24.325 22.404V21.404H24.2983L24.2716 21.4054L24.325 22.404ZM24.637 22.68H23.637V22.7001L23.6378 22.7202L24.637 22.68ZM24.721 24.768H25.721V24.7479L25.7202 24.7278L24.721 24.768ZM24.433 25.08L24.3792 24.0814L21.2592 24.2494L21.313 25.248L21.3668 26.2466L24.4868 26.0786L24.433 25.08ZM21.313 25.248V24.248C21.2713 24.248 21.2352 24.2506 21.2063 24.2536C21.1772 24.2566 21.1519 24.2606 21.1313 24.2642C21.0914 24.2714 21.0591 24.2796 21.039 24.2851C21.0182 24.2908 21.0013 24.2961 20.9917 24.2991C20.9823 24.3021 20.9739 24.3049 20.9728 24.3053C20.9694 24.3064 20.9733 24.3051 20.9783 24.3035C20.9835 24.3019 20.996 24.2979 21.0128 24.2934C21.0287 24.289 21.0571 24.2817 21.0933 24.2752C21.1121 24.2719 21.1356 24.2682 21.1631 24.2653C21.1903 24.2625 21.2248 24.26 21.265 24.26V25.26V26.26C21.3067 26.26 21.3428 26.2574 21.3717 26.2544C21.4008 26.2514 21.4261 26.2474 21.4467 26.2438C21.4866 26.2366 21.5189 26.2284 21.539 26.2229C21.5598 26.2172 21.5767 26.2119 21.5863 26.2089C21.5957 26.2059 21.6041 26.2031 21.6052 26.2027C21.6086 26.2016 21.6047 26.2029 21.5997 26.2045C21.5945 26.2061 21.5819 26.2101 21.5652 26.2146C21.5493 26.219 21.5209 26.2263 21.4846 26.2328C21.4659 26.2361 21.4424 26.2398 21.4149 26.2427C21.3877 26.2455 21.3532 26.248 21.313 26.248V25.248ZM21.265 25.26L21.2138 24.2613L18.8738 24.3813L18.925 25.38L18.9762 26.3787L21.3162 26.2587L21.265 25.26ZM18.925 25.38V24.38H18.901V25.38V26.38H18.925V25.38ZM18.901 25.38V24.38C19.1443 24.38 19.326 24.4913 19.4311 24.5995C19.5339 24.7054 19.6073 24.85 19.6215 25.021L18.625 25.104L17.6285 25.187C17.6749 25.7443 18.1377 26.38 18.901 26.38V25.38ZM18.625 25.104L19.6236 25.0515L19.1316 15.6915L18.133 15.744L17.1344 15.7965L17.6264 25.1565L18.625 25.104ZM18.133 15.744H19.133V15.72H18.133H17.133V15.744H18.133ZM18.133 15.72H19.133C19.133 15.9532 19.0303 16.1289 18.9241 16.2351C18.8179 16.3413 18.6422 16.444 18.409 16.444V15.444V14.444C17.7127 14.444 17.133 15.0237 17.133 15.72H18.133ZM18.409 15.444L18.4639 16.4425L20.6479 16.3225L20.593 15.324L20.5381 14.3255L18.3541 14.4455L18.409 15.444ZM20.593 15.324V16.324H20.641V15.324V14.324H20.593V15.324ZM20.641 15.324L20.6936 16.3226L23.8856 16.1546L23.833 15.156L23.7804 14.1574L20.5884 14.3254L20.641 15.324ZM23.833 15.156V16.156H23.857V15.156V14.156H23.833V15.156ZM23.857 15.156V16.156C23.6222 16.156 23.4515 16.0523 23.3537 15.9573C23.2563 15.8626 23.165 15.7142 23.1485 15.515L24.145 15.432L25.1415 15.349C25.1129 15.0058 24.9497 14.7194 24.7473 14.5227C24.5445 14.3257 24.2358 14.156 23.857 14.156V15.156ZM24.145 15.432L23.1461 15.4779L23.2421 17.5659L24.241 17.52L25.2399 17.4741L25.1439 15.3861L24.145 15.432ZM24.241 17.52H23.241V17.544H24.241H25.241V17.52H24.241ZM24.241 17.544H23.241C23.241 17.3092 23.3447 17.1385 23.4397 17.0407C23.5344 16.9433 23.6828 16.8521 23.882 16.8355L23.965 17.832L24.048 18.8285C24.3912 18.8 24.6776 18.6367 24.8743 18.4343C25.0713 18.2315 25.241 17.9228 25.241 17.544H24.241ZM23.965 17.832L23.9136 16.8333L21.1176 16.9773L21.169 17.976L21.2204 18.9747L24.0164 18.8307L23.965 17.832ZM21.169 17.976L20.1707 18.034L20.2307 19.066L21.229 19.008L22.2273 18.95L22.1673 17.918L21.169 17.976ZM21.229 19.008V20.008H23.377V19.008V18.008H21.229V19.008ZM23.377 19.008V20.008C23.1787 20.008 23.0143 19.9301 22.8993 19.8247C22.7784 19.7139 22.665 19.5267 22.665 19.284H23.665H24.665C24.665 18.4956 23.9896 18.008 23.377 18.008V19.008ZM23.665 19.284H22.665V19.308H23.665H24.665V19.284H23.665ZM23.665 19.308L22.6651 19.2949L22.6411 21.1309L23.641 21.144L24.6409 21.1571L24.6649 19.3211L23.665 19.308ZM23.641 21.144L22.6435 21.0728C22.653 20.9407 22.7078 20.7882 22.8325 20.6599C22.9637 20.525 23.1484 20.444 23.341 20.444V21.444V22.444C24.1218 22.444 24.5957 21.8138 24.6385 21.2152L23.641 21.144ZM23.341 21.444V20.444H21.349V21.444V22.444H23.341V21.444ZM21.349 21.444L20.3504 21.4977L20.4104 22.6137L21.409 22.56L22.4076 22.5063L22.3476 21.3903L21.349 21.444ZM21.409 22.56L21.4624 23.5586L24.3784 23.4026L24.325 22.404L24.2716 21.4054L21.3556 21.5614L21.409 22.56ZM24.325 22.404V23.404H24.349V22.404V21.404H24.325V22.404ZM24.349 22.404V23.404C24.1422 23.404 23.9704 23.3177 23.8547 23.2053C23.7415 23.0953 23.637 22.9151 23.637 22.68H24.637H25.637C25.637 21.9566 25.0298 21.404 24.349 21.404V22.404ZM24.637 22.68L23.6378 22.7202L23.7218 24.8082L24.721 24.768L25.7202 24.7278L25.6362 22.6398L24.637 22.68ZM24.721 24.768H23.721C23.721 24.4359 23.9708 24.1105 24.3618 24.0825L24.433 25.08L24.5042 26.0775C25.2312 26.0255 25.721 25.4121 25.721 24.768H24.721ZM28.3742 25.332L28.3219 26.3306L28.3481 26.332H28.3742V25.332ZM25.8542 25.2L25.7712 26.1965L25.7866 26.1978L25.8019 26.1986L25.8542 25.2ZM25.6142 24.936L24.6156 24.8842L24.6142 24.9101V24.936H25.6142ZM26.1062 15.444L27.1049 15.4958L27.1062 15.4699V15.444H26.1062ZM26.3702 15.216L26.4194 14.2172L26.3948 14.216H26.3702V15.216ZM28.5662 15.324L28.5171 16.3228L28.7006 16.3318L28.8753 16.275L28.5662 15.324ZM28.7582 22.608L29.0363 21.6474L27.8205 21.2955L27.7594 22.5597L28.7582 22.608ZM28.6382 25.092L29.6341 25.1825L29.6361 25.1614L29.6371 25.1403L28.6382 25.092ZM29.0102 17.7L28.7677 16.7299L28.0503 16.9092L28.0116 17.6477L29.0102 17.7ZM28.8782 20.22L27.8796 20.1677L27.844 20.8483L28.4644 21.1304L28.8782 20.22ZM28.3982 25.332V24.332H28.3742V25.332V26.332H28.3982V25.332ZM28.3742 25.332L28.4266 24.3334L25.9066 24.2014L25.8542 25.2L25.8019 26.1986L28.3219 26.3306L28.3742 25.332ZM25.8542 25.2L25.9373 24.2035C26.1017 24.2172 26.2832 24.2931 26.4223 24.4472C26.5601 24.5997 26.6142 24.7816 26.6142 24.936H25.6142H24.6142C24.6142 25.5833 25.0923 26.14 25.7712 26.1965L25.8542 25.2ZM25.6142 24.936L26.6129 24.9878L27.1049 15.4958L26.1062 15.444L25.1076 15.3922L24.6156 24.8842L25.6142 24.936ZM26.1062 15.444H27.1062C27.1062 15.9091 26.7332 16.216 26.3462 16.216V15.216V14.216C25.6953 14.216 25.1062 14.7389 25.1062 15.444H26.1062ZM26.3462 15.216V16.216H26.3702V15.216V14.216H26.3462V15.216ZM26.3702 15.216L26.3211 16.2148L28.5171 16.3228L28.5662 15.324L28.6154 14.3252L26.4194 14.2172L26.3702 15.216ZM28.5662 15.324L28.8753 16.275C29.2703 16.1467 29.6457 16.084 29.9942 16.084V15.084V14.084C29.4068 14.084 28.8222 14.1893 28.2572 14.373L28.5662 15.324ZM29.9942 15.084V16.084C31.7639 16.084 33.2182 17.377 33.2182 19.044H34.2182H35.2182C35.2182 16.079 32.6646 14.084 29.9942 14.084V15.084ZM34.2182 19.044H33.2182C33.2182 19.9206 32.9248 20.5893 32.4566 21.0402C31.986 21.4933 31.2495 21.812 30.2102 21.812V22.812V23.812C31.667 23.812 32.9344 23.3567 33.8439 22.4808C34.7557 21.6027 35.2182 20.3874 35.2182 19.044H34.2182ZM30.2102 22.812V21.812C29.8005 21.812 29.4021 21.7533 29.0363 21.6474L28.7582 22.608L28.4802 23.5686C29.0264 23.7267 29.612 23.812 30.2102 23.812V22.812ZM28.7582 22.608L27.7594 22.5597L27.6394 25.0437L28.6382 25.092L29.6371 25.1403L29.7571 22.6563L28.7582 22.608ZM28.6382 25.092L27.6424 25.0015C27.6584 24.8245 27.737 24.6691 27.8516 24.5544C27.9654 24.4407 28.153 24.332 28.3982 24.332V25.332V26.332C29.1152 26.332 29.5829 25.7461 29.6341 25.1825L28.6382 25.092ZM29.0102 17.7L28.0116 17.6477L27.8796 20.1677L28.8782 20.22L29.8769 20.2723L30.0089 17.7523L29.0102 17.7ZM28.8782 20.22L28.4644 21.1304C28.8439 21.3028 29.3204 21.424 29.8022 21.424V20.424V19.424C29.6361 19.424 29.4406 19.3772 29.2921 19.3096L28.8782 20.22ZM29.8022 20.424V21.424C30.3015 21.424 30.7449 21.3001 31.1136 21.0584C31.4775 20.8198 31.7087 20.5059 31.8525 20.2171C32.1253 19.669 32.1222 19.1316 32.1222 19.056H31.1222H30.1222C30.1222 19.0568 30.1224 19.064 30.1215 19.0793C30.1205 19.0959 30.1183 19.121 30.1136 19.151C30.1034 19.216 30.0856 19.2785 30.062 19.3259C30.0408 19.3686 30.0245 19.3809 30.0171 19.3857C30.0146 19.3874 29.963 19.424 29.8022 19.424V20.424ZM31.1222 19.056H32.1222C32.1222 17.5704 30.9043 16.628 29.5622 16.628V17.628V18.628C29.7862 18.628 29.9292 18.7007 30.005 18.7691C30.0735 18.831 30.1222 18.9182 30.1222 19.056H31.1222ZM29.5622 17.628V16.628C29.3048 16.628 29.0312 16.664 28.7677 16.7299L29.0102 17.7L29.2528 18.6701C29.3732 18.64 29.4837 18.628 29.5622 18.628V17.628ZM41.3553 25.08L41.4091 26.0786L41.4179 26.0781L41.4266 26.0775L41.3553 25.08ZM38.2353 25.248V26.248H38.2622L38.2891 26.2466L38.2353 25.248ZM38.1873 25.26V24.26H38.1617L38.1361 24.2613L38.1873 25.26ZM35.8473 25.38V26.38H35.873L35.8986 26.3787L35.8473 25.38ZM35.5473 25.104L34.5487 25.1565L34.5495 25.1718L34.5508 25.187L35.5473 25.104ZM35.0553 15.744H34.0553V15.7703L34.0567 15.7965L35.0553 15.744ZM35.3313 15.444V16.444H35.3588L35.3862 16.4425L35.3313 15.444ZM37.5153 15.324V14.324H37.4879L37.4605 14.3255L37.5153 15.324ZM37.5633 15.324V16.324H37.5896L37.6159 16.3226L37.5633 15.324ZM40.7553 15.156V14.156H40.729L40.7028 14.1574L40.7553 15.156ZM41.0673 15.432L42.0663 15.3861L42.0654 15.3675L42.0639 15.349L41.0673 15.432ZM41.1633 17.52H42.1633V17.497L42.1623 17.4741L41.1633 17.52ZM40.8873 17.832L40.9388 18.8307L40.9546 18.8299L40.9704 18.8285L40.8873 17.832ZM38.0913 17.976L38.0399 16.9773L37.0346 17.0291L37.093 18.034L38.0913 17.976ZM38.1513 19.008L37.153 19.066L37.2078 20.008H38.1513V19.008ZM40.5873 19.308L41.5873 19.3211V19.308H40.5873ZM40.5633 21.144L41.5608 21.2152L41.5629 21.1862L41.5633 21.1571L40.5633 21.144ZM38.2713 21.444V20.444H37.2161L37.2728 21.4977L38.2713 21.444ZM38.3313 22.56L37.3328 22.6137L37.3865 23.612L38.3848 23.5586L38.3313 22.56ZM41.2473 22.404V21.404H41.2206L41.1939 21.4054L41.2473 22.404ZM41.5593 22.68H40.5593V22.7001L40.5602 22.7202L41.5593 22.68ZM41.6433 24.768H42.6433V24.7479L42.6425 24.7278L41.6433 24.768ZM41.3553 25.08L41.3016 24.0814L38.1816 24.2494L38.2353 25.248L38.2891 26.2466L41.4091 26.0786L41.3553 25.08ZM38.2353 25.248V24.248C38.1937 24.248 38.1575 24.2506 38.1286 24.2536C38.0995 24.2566 38.0742 24.2606 38.0537 24.2642C38.0137 24.2714 37.9815 24.2796 37.9613 24.2851C37.9405 24.2908 37.9236 24.2961 37.914 24.2991C37.9046 24.3021 37.8962 24.3049 37.8951 24.3053C37.8917 24.3064 37.8956 24.3051 37.9006 24.3035C37.9058 24.3019 37.9184 24.2979 37.9351 24.2934C37.9511 24.289 37.9794 24.2817 38.0157 24.2752C38.0344 24.2719 38.058 24.2682 38.0854 24.2653C38.1126 24.2625 38.1472 24.26 38.1873 24.26V25.26V26.26C38.229 26.26 38.2652 26.2574 38.2941 26.2544C38.3232 26.2514 38.3485 26.2474 38.369 26.2438C38.409 26.2366 38.4412 26.2284 38.4613 26.2229C38.4822 26.2172 38.499 26.2119 38.5087 26.2089C38.518 26.2059 38.5264 26.2031 38.5276 26.2027C38.5309 26.2016 38.527 26.2029 38.5221 26.2045C38.5169 26.2061 38.5043 26.2101 38.4876 26.2146C38.4716 26.219 38.4433 26.2263 38.407 26.2328C38.3883 26.2361 38.3647 26.2398 38.3373 26.2427C38.3101 26.2455 38.2755 26.248 38.2353 26.248V25.248ZM38.1873 25.26L38.1361 24.2613L35.7961 24.3813L35.8473 25.38L35.8986 26.3787L38.2386 26.2587L38.1873 25.26ZM35.8473 25.38V24.38H35.8233V25.38V26.38H35.8473V25.38ZM35.8233 25.38V24.38C36.0666 24.38 36.2483 24.4913 36.3534 24.5995C36.4562 24.7054 36.5296 24.85 36.5439 25.021L35.5473 25.104L34.5508 25.187C34.5972 25.7443 35.0601 26.38 35.8233 26.38V25.38ZM35.5473 25.104L36.546 25.0515L36.054 15.6915L35.0553 15.744L34.0567 15.7965L34.5487 25.1565L35.5473 25.104ZM35.0553 15.744H36.0553V15.72H35.0553H34.0553V15.744H35.0553ZM35.0553 15.72H36.0553C36.0553 15.9532 35.9527 16.1289 35.8464 16.2351C35.7402 16.3413 35.5646 16.444 35.3313 16.444V15.444V14.444C34.6351 14.444 34.0553 15.0237 34.0553 15.72H35.0553ZM35.3313 15.444L35.3862 16.4425L37.5702 16.3225L37.5153 15.324L37.4605 14.3255L35.2765 14.4455L35.3313 15.444ZM37.5153 15.324V16.324H37.5633V15.324V14.324H37.5153V15.324ZM37.5633 15.324L37.6159 16.3226L40.8079 16.1546L40.7553 15.156L40.7028 14.1574L37.5108 14.3254L37.5633 15.324ZM40.7553 15.156V16.156H40.7793V15.156V14.156H40.7553V15.156ZM40.7793 15.156V16.156C40.5445 16.156 40.3738 16.0523 40.2761 15.9573C40.1786 15.8626 40.0874 15.7142 40.0708 15.515L41.0673 15.432L42.0639 15.349C42.0353 15.0058 41.8721 14.7194 41.6696 14.5227C41.4669 14.3257 41.1582 14.156 40.7793 14.156V15.156ZM41.0673 15.432L40.0684 15.4779L40.1644 17.5659L41.1633 17.52L42.1623 17.4741L42.0663 15.3861L41.0673 15.432ZM41.1633 17.52H40.1633V17.544H41.1633H42.1633V17.52H41.1633ZM41.1633 17.544H40.1633C40.1633 17.3092 40.2671 17.1385 40.3621 17.0407C40.4567 16.9433 40.6052 16.8521 40.8043 16.8355L40.8873 17.832L40.9704 18.8285C41.3135 18.8 41.5999 18.6367 41.7966 18.4343C41.9936 18.2315 42.1633 17.9228 42.1633 17.544H41.1633ZM40.8873 17.832L40.8359 16.8333L38.0399 16.9773L38.0913 17.976L38.1428 18.9747L40.9388 18.8307L40.8873 17.832ZM38.0913 17.976L37.093 18.034L37.153 19.066L38.1513 19.008L39.1497 18.95L39.0897 17.918L38.0913 17.976ZM38.1513 19.008V20.008H40.2993V19.008V18.008H38.1513V19.008ZM40.2993 19.008V20.008C40.1011 20.008 39.9367 19.9301 39.8216 19.8247C39.7008 19.7139 39.5873 19.5267 39.5873 19.284H40.5873H41.5873C41.5873 18.4956 40.9119 18.008 40.2993 18.008V19.008ZM40.5873 19.284H39.5873V19.308H40.5873H41.5873V19.284H40.5873ZM40.5873 19.308L39.5874 19.2949L39.5634 21.1309L40.5633 21.144L41.5633 21.1571L41.5873 19.3211L40.5873 19.308ZM40.5633 21.144L39.5659 21.0728C39.5753 20.9407 39.6301 20.7882 39.7548 20.6599C39.8861 20.525 40.0708 20.444 40.2633 20.444V21.444V22.444C41.0441 22.444 41.518 21.8138 41.5608 21.2152L40.5633 21.144ZM40.2633 21.444V20.444H38.2713V21.444V22.444H40.2633V21.444ZM38.2713 21.444L37.2728 21.4977L37.3328 22.6137L38.3313 22.56L39.3299 22.5063L39.2699 21.3903L38.2713 21.444ZM38.3313 22.56L38.3848 23.5586L41.3008 23.4026L41.2473 22.404L41.1939 21.4054L38.2779 21.5614L38.3313 22.56ZM41.2473 22.404V23.404H41.2713V22.404V21.404H41.2473V22.404ZM41.2713 22.404V23.404C41.0646 23.404 40.8928 23.3177 40.7771 23.2053C40.6638 23.0953 40.5593 22.9151 40.5593 22.68H41.5593H42.5593C42.5593 21.9566 41.9521 21.404 41.2713 21.404V22.404ZM41.5593 22.68L40.5602 22.7202L40.6441 24.8082L41.6433 24.768L42.6425 24.7278L42.5585 22.6398L41.5593 22.68ZM41.6433 24.768H40.6433C40.6433 24.4359 40.8931 24.1105 41.2841 24.0825L41.3553 25.08L41.4266 26.0775C42.1536 26.0255 42.6433 25.4121 42.6433 24.768H41.6433ZM51.2006 24.564L50.8198 23.6393L50.7959 23.6492L50.7725 23.6603L51.2006 24.564ZM49.6046 25.32L49.1765 24.4163L49.1669 24.4208L49.1574 24.4256L49.6046 25.32ZM49.0046 25.212L49.8483 24.6751L49.8385 24.6598L49.8282 24.6449L49.0046 25.212ZM47.1686 22.344L48.0232 21.8247L47.7311 21.344H47.1686V22.344ZM45.7166 22.152L45.9946 21.1914L44.782 20.8404L44.7179 22.1012L45.7166 22.152ZM45.5726 24.984L46.5685 25.0745L46.5703 25.0547L46.5713 25.0348L45.5726 24.984ZM45.3086 25.224L45.2563 26.2226L45.2824 26.224H45.3086V25.224ZM42.7886 25.092L42.8409 24.0934L42.8148 24.092H42.7886V25.092ZM42.5606 24.828L41.5619 24.7775L41.5606 24.8027V24.828H42.5606ZM43.0406 15.336L42.0456 15.2365L42.0431 15.261L42.0419 15.2855L43.0406 15.336ZM43.3046 15.108L43.3532 14.1092L43.3289 14.108H43.3046V15.108ZM45.5246 15.216L45.476 16.2148L45.6511 16.2233L45.8187 16.1718L45.5246 15.216ZM50.2526 21.192L49.5292 20.5015L49.0261 21.0287L49.3737 21.6691L50.2526 21.192ZM45.9566 17.58L45.7141 16.6099L44.996 16.7894L44.9579 17.5285L45.9566 17.58ZM45.8366 19.908L44.8379 19.8565L44.802 20.5526L45.4427 20.8271L45.8366 19.908ZM51.2006 24.564L50.7725 23.6603L49.1765 24.4163L49.6046 25.32L50.0327 26.2237L51.6287 25.4677L51.2006 24.564ZM49.6046 25.32L49.1574 24.4256C49.1837 24.4124 49.2398 24.392 49.3166 24.392V25.392V26.392C49.5854 26.392 49.8335 26.3236 50.0518 26.2144L49.6046 25.32ZM49.3166 25.392V24.392C49.3933 24.392 49.506 24.4085 49.6242 24.4726C49.7427 24.537 49.8134 24.6204 49.8483 24.6751L49.0046 25.212L48.1609 25.7489C48.4323 26.1753 48.8619 26.392 49.3166 26.392V25.392ZM49.0046 25.212L49.8282 24.6449C49.339 23.9343 48.5938 22.7638 48.0232 21.8247L47.1686 22.344L46.314 22.8633C46.8954 23.8202 47.6622 25.0257 48.1809 25.7791L49.0046 25.212ZM47.1686 22.344V21.344C46.7419 21.344 46.3454 21.293 45.9946 21.1914L45.7166 22.152L45.4385 23.1126C45.9997 23.275 46.5873 23.344 47.1686 23.344V22.344ZM45.7166 22.152L44.7179 22.1012L44.5739 24.9332L45.5726 24.984L46.5713 25.0348L46.7153 22.2028L45.7166 22.152ZM45.5726 24.984L44.5767 24.8935C44.6009 24.6273 44.8378 24.224 45.3326 24.224V25.224V26.224C46.0913 26.224 46.5203 25.6047 46.5685 25.0745L45.5726 24.984ZM45.3326 25.224V24.224H45.3086V25.224V26.224H45.3326V25.224ZM45.3086 25.224L45.3609 24.2254L42.8409 24.0934L42.7886 25.092L42.7363 26.0906L45.2563 26.2226L45.3086 25.224ZM42.7886 25.092V24.092C43.2537 24.092 43.5606 24.4651 43.5606 24.852H42.5606H41.5606C41.5606 25.5029 42.0835 26.092 42.7886 26.092V25.092ZM42.5606 24.852H43.5606V24.828H42.5606H41.5606V24.852H42.5606ZM42.5606 24.828L43.5593 24.8785L44.0393 15.3865L43.0406 15.336L42.0419 15.2855L41.5619 24.7775L42.5606 24.828ZM43.0406 15.336L44.0356 15.4355C44.0156 15.6359 43.9229 15.7919 43.8147 15.8964C43.7059 16.0015 43.5236 16.108 43.2806 16.108V15.108V14.108C42.5898 14.108 42.1028 14.6641 42.0456 15.2365L43.0406 15.336ZM43.2806 15.108V16.108H43.3046V15.108V14.108H43.2806V15.108ZM43.3046 15.108L43.256 16.1068L45.476 16.2148L45.5246 15.216L45.5732 14.2172L43.3532 14.1092L43.3046 15.108ZM45.5246 15.216L45.8187 16.1718C46.1933 16.0565 46.5743 16 46.9406 16V15V14C46.3709 14 45.7918 14.0875 45.2305 14.2602L45.5246 15.216ZM46.9406 15V16C48.7533 16 50.1526 17.2452 50.1526 18.744H51.1526H52.1526C52.1526 15.8509 49.5439 14 46.9406 14V15ZM51.1526 18.744H50.1526C50.1526 19.2227 50.0267 19.9804 49.5292 20.5015L50.2526 21.192L50.9759 21.8825C51.9905 20.8196 52.1526 19.4413 52.1526 18.744H51.1526ZM50.2526 21.192L49.3737 21.6691C49.6835 22.2397 49.9674 22.925 50.1766 23.4934C50.2802 23.7747 50.3621 24.0186 50.417 24.194C50.4447 24.2825 50.4637 24.3479 50.4748 24.3891C50.4805 24.4105 50.4821 24.4176 50.4813 24.4144C50.481 24.413 50.4785 24.4013 50.4756 24.3831C50.4744 24.3758 50.4646 24.3178 50.4646 24.24H51.4646H52.4646C52.4646 24.1094 52.4368 23.9944 52.4356 23.9893C52.4269 23.9489 52.4164 23.9077 52.4063 23.8703C52.3858 23.794 52.3583 23.7007 52.3258 23.5968C52.2603 23.3874 52.1675 23.1123 52.0536 22.8026C51.8277 22.189 51.5057 21.4043 51.1314 20.7149L50.2526 21.192ZM51.4646 24.24H50.4646C50.4646 24.1235 50.4975 23.9682 50.6013 23.826C50.6978 23.6938 50.8018 23.6467 50.8198 23.6393L51.2006 24.564L51.5813 25.4887C51.8033 25.3973 52.0394 25.2482 52.2169 25.005C52.4016 24.7518 52.4646 24.4765 52.4646 24.24H51.4646ZM45.9566 17.58L44.9579 17.5285L44.8379 19.8565L45.8366 19.908L46.8353 19.9595L46.9553 17.6315L45.9566 17.58ZM45.8366 19.908L45.4427 20.8271C45.7994 20.98 46.2692 21.1 46.7486 21.1V20.1V19.1C46.5799 19.1 46.3778 19.052 46.2305 18.9889L45.8366 19.908ZM46.7486 20.1V21.1C47.5032 21.1 48.1217 20.8123 48.5359 20.3236C48.9248 19.8648 49.0686 19.307 49.0686 18.84H48.0686H47.0686C47.0686 18.925 47.0384 18.9972 47.0102 19.0304C47 19.0425 46.9863 19.0547 46.9599 19.0664C46.9324 19.0786 46.8686 19.1 46.7486 19.1V20.1ZM48.0686 18.84H49.0686C49.0686 17.3556 47.7833 16.508 46.5086 16.508V17.508V18.508C46.7494 18.508 46.9016 18.5824 46.9766 18.6457C47.0413 18.7003 47.0686 18.7585 47.0686 18.84H48.0686ZM46.5086 17.508V16.508C46.2512 16.508 45.9776 16.544 45.7141 16.6099L45.9566 17.58L46.1991 18.5501C46.3196 18.52 46.43 18.508 46.5086 18.508V17.508ZM52.1763 25.152L51.1996 25.3669L51.202 25.3769L52.1763 25.152ZM51.7803 23.352L52.757 23.1371L52.7303 23.0159L52.6748 22.9048L51.7803 23.352ZM52.9083 20.076L53.7496 19.5352L53.7425 19.5244L52.9083 20.076ZM57.1563 15.408L58.1295 15.1779L58.1242 15.1554L58.1179 15.1333L57.1563 15.408ZM57.5763 17.184L56.6032 17.4141L56.6135 17.4577L56.6277 17.5002L57.5763 17.184ZM56.6043 20.268L57.4323 19.7072L57.4265 19.6987L57.4206 19.6903L56.6043 20.268ZM52.5123 25.44L52.6118 24.445L52.5622 24.44H52.5123V25.44ZM52.1763 25.152L53.153 24.9371L52.757 23.1371L51.7803 23.352L50.8037 23.5669L51.1997 25.3669L52.1763 25.152ZM51.7803 23.352L52.6748 22.9048C52.7151 22.9855 52.7356 23.0558 52.7465 23.1017C52.7576 23.1488 52.7625 23.187 52.7649 23.2105C52.7691 23.2524 52.7683 23.2856 52.7683 23.268H51.7683H50.7683C50.7683 23.2744 50.7676 23.3376 50.7748 23.4095C50.7809 23.4705 50.7997 23.6268 50.8859 23.7992L51.7803 23.352ZM51.7683 23.268H52.7683C52.7683 23.5705 52.5948 23.7928 52.4377 23.9019C52.3691 23.9496 52.3035 23.9776 52.2489 23.9947C52.2005 24.0098 52.1235 24.028 52.0203 24.028V23.028V22.028C51.7813 22.028 51.5191 22.1048 51.2969 22.2591C51.0319 22.4432 50.7683 22.7855 50.7683 23.268H51.7683ZM52.0203 23.028V24.028H52.0683V23.028V22.028H52.0203V23.028ZM52.0683 23.028V24.028C52.6336 24.028 53.2496 23.8822 53.7563 23.5655C54.2722 23.2431 54.7723 22.6667 54.7723 21.84H53.7723H52.7723C52.7723 21.8352 52.7732 21.8256 52.7767 21.8142C52.7783 21.8091 52.7801 21.8048 52.7816 21.8017C52.783 21.7986 52.784 21.7971 52.7839 21.7973C52.7828 21.7989 52.7622 21.8284 52.6963 21.8695C52.5551 21.9578 52.3191 22.028 52.0683 22.028V23.028ZM53.7723 21.84H54.7723C54.7723 21.4276 54.6499 21.0787 54.4747 20.7343C54.312 20.4141 54.0647 20.0255 53.7495 19.5352L52.9083 20.076L52.0672 20.6168C52.4 21.1345 52.5847 21.4299 52.692 21.6407C52.7416 21.7384 52.7604 21.7912 52.7677 21.8165C52.7731 21.8351 52.7723 21.8385 52.7723 21.84H53.7723ZM52.9083 20.076L53.7425 19.5244C53.3256 18.894 53.2003 18.4115 53.2003 18.072H52.2003H51.2003C51.2003 18.9085 51.5071 19.77 52.0742 20.6276L52.9083 20.076ZM52.2003 18.072H53.2003C53.2003 17.56 53.4761 17.1001 54.0692 16.7227C54.6755 16.3369 55.5261 16.108 56.3763 16.108V15.108V14.108C55.2106 14.108 53.9732 14.4131 52.9955 15.0353C52.0046 15.6659 51.2003 16.688 51.2003 18.072H52.2003ZM56.3763 15.108V16.108C56.48 16.108 56.5473 16.1108 56.5916 16.115C56.6383 16.1194 56.6297 16.1228 56.5919 16.1099C56.5483 16.095 56.4557 16.0548 56.3628 15.9619C56.266 15.8651 56.2166 15.7591 56.1948 15.6827L57.1563 15.408L58.1179 15.1333C58.0601 14.9309 57.9537 14.7244 57.777 14.5477C57.6042 14.3749 57.4089 14.2755 57.2377 14.2171C56.9355 14.1139 56.6051 14.108 56.3763 14.108V15.108ZM57.1563 15.408L56.1832 15.6381L56.6032 17.4141L57.5763 17.184L58.5495 16.9539L58.1295 15.1779L57.1563 15.408ZM57.5763 17.184L56.6277 17.5002C56.6026 17.425 56.5942 17.3629 56.5909 17.327C56.5878 17.2929 56.5883 17.2662 56.5883 17.28H57.5883H58.5883C58.5883 17.2638 58.5945 17.0762 58.525 16.8678L57.5763 17.184ZM57.5883 17.28H56.5883C56.5883 17.0172 56.7284 16.809 56.8754 16.6946C56.9403 16.6442 57.0059 16.611 57.0664 16.5892C57.1177 16.5707 57.2099 16.544 57.3363 16.544V17.544V18.544C57.6168 18.544 57.892 18.4377 58.1033 18.2734C58.3583 18.075 58.5883 17.7348 58.5883 17.28H57.5883ZM57.3363 17.544V16.544H57.2643V17.544V18.544H57.3363V17.544ZM57.2643 17.544V16.544C56.7743 16.544 56.2082 16.631 55.7262 16.9016C55.2022 17.1958 54.7523 17.7371 54.7523 18.516H55.7523H56.7523C56.7523 18.5334 56.7446 18.579 56.715 18.6241C56.6903 18.6618 56.674 18.6631 56.7054 18.6454C56.7383 18.627 56.8027 18.5999 56.9058 18.5781C57.0071 18.5567 57.1289 18.544 57.2643 18.544V17.544ZM55.7523 18.516H54.7523C54.7523 18.947 54.905 19.3542 55.076 19.6979C55.2535 20.0548 55.5004 20.4391 55.7881 20.8457L56.6043 20.268L57.4206 19.6903C57.1563 19.3169 56.9772 19.0292 56.8667 18.8071C56.7497 18.5718 56.7523 18.493 56.7523 18.516H55.7523ZM56.6043 20.268L55.7764 20.8288C56.1993 21.4531 56.3243 21.9329 56.3243 22.284H57.3243H58.3243C58.3243 21.4351 58.0174 20.5709 57.4323 19.7072L56.6043 20.268ZM57.3243 22.284H56.3243C56.3243 22.8272 56.01 23.3427 55.3354 23.7704C54.6562 24.201 53.7301 24.452 52.8603 24.452V25.452V26.452C54.0666 26.452 55.3725 26.115 56.4063 25.4596C57.4447 24.8013 58.3243 23.7328 58.3243 22.284H57.3243ZM52.8603 25.452V24.452C52.7348 24.452 52.6749 24.4513 52.6118 24.445L52.5123 25.44L52.4128 26.435C52.5898 26.4527 52.7459 26.452 52.8603 26.452V25.452ZM52.5123 25.44V24.44C52.7188 24.44 52.8701 24.5251 52.9578 24.6019C53.0454 24.6786 53.1184 24.7872 53.1507 24.9271L52.1763 25.152L51.202 25.3769C51.3242 25.9066 51.8133 26.44 52.5123 26.44V25.44Z" fill="#197D8E" mask="url(#path-1-outside-1_1_4)"/>
</svg>
